<?xml version="1.0" standalone="yes"?>

<svg version="1.1" viewBox="0.0 0.0 960.0 720.0" fill="none" stroke="none" stroke-linecap="square" stroke-miterlimit="10" xmlns="http://www.w3.org/2000/svg" xmlns:xlink="http://www.w3.org/1999/xlink"><clipPath id="p3.0"><path d="m0 0l960.0 0l0 720.0l-960.0 0l0 -720.0z" clip-rule="nonzero"></path></clipPath><g clip-path="url(#p3.0)"><path fill="#ffffff" d="m0 0l960.0 0l0 720.0l-960.0 0z" fill-rule="nonzero"></path><path fill="#bfbfbf" d="m434.22665 19.48609l110.8436 0l0 76.53438l-110.8436 0z" fill-rule="nonzero"></path><path stroke="#000000" stroke-width="1.0" stroke-linejoin="round" stroke-linecap="butt" d="m434.22665 19.48609l110.8436 0l0 76.53438l-110.8436 0z" fill-rule="nonzero"></path><path fill="#000000" d="m461.19922 42.18234q0 0.703125 -0.1875 1.3125q-0.171875 0.609375 -0.5 1.09375q-0.328125 0.46875 -0.796875 0.84375q-0.46875 0.359375 -1.046875 0.609375q-0.578125 0.234375 -1.25 0.359375q-0.65625 0.125 -1.5 0.125l-3.96875 0q-0.265625 0 -0.515625 -0.171875q-0.234375 -0.1875 -0.234375 -0.65625l0 -13.515625q0 -0.453125 0.234375 -0.640625q0.25 -0.1875 0.515625 -0.1875l3.453125 0q1.359375 0 2.21875 0.265625q0.875 0.25 1.453125 0.75q0.578125 0.484375 0.859375 1.203125q0.296875 0.71875 0.296875 1.625q0 0.53125 -0.125 1.03125q-0.125 0.484375 -0.375 0.90625q-0.25 0.40625 -0.640625 0.734375q-0.375 0.328125 -0.875 0.546875q0.625 0.109375 1.15625 0.421875q0.546875 0.3125 0.953125 0.796875q0.40625 0.484375 0.640625 1.125q0.234375 0.640625 0.234375 1.421875zm-3.03125 -6.796875q0 -0.546875 -0.15625 -0.984375q-0.15625 -0.453125 -0.484375 -0.765625q-0.328125 -0.3125 -0.859375 -0.46875q-0.515625 -0.171875 -1.390625 -0.171875l-2.078125 0l0 4.921875l2.296875 0q0.78125 0 1.25 -0.203125q0.484375 -0.21875 0.796875 -0.5625q0.328125 -0.34375 0.46875 -0.796875q0.15625 -0.46875 0.15625 -0.96875zm0.90625 6.90625q0 -0.671875 -0.21875 -1.1875q-0.21875 -0.515625 -0.640625 -0.859375q-0.40625 -0.359375 -1.03125 -0.546875q-0.625 -0.1875 -1.578125 -0.1875l-2.40625 0l0 5.34375l2.921875 0q0.6875 0 1.203125 -0.15625q0.515625 -0.171875 0.90625 -0.484375q0.40625 -0.328125 0.625 -0.796875q0.21875 -0.484375 0.21875 -1.125zm11.1171875 -5.921875q0 0.265625 -0.015625 0.4375q0 0.171875 -0.046875 0.28125q-0.03125 0.09375 -0.078125 0.15625q-0.046875 0.046875 -0.140625 0.046875q-0.09375 0 -0.234375 -0.046875q-0.140625 -0.0625 -0.3125 -0.109375q-0.15625 -0.0625 -0.375 -0.109375q-0.203125 -0.046875 -0.453125 -0.046875q-0.296875 0 -0.578125 0.125q-0.28125 0.109375 -0.59375 0.390625q-0.3125 0.265625 -0.65625 0.71875q-0.328125 0.4375 -0.734375 1.078125l0 6.9375q0 0.09375 -0.046875 0.15625q-0.046875 0.0625 -0.15625 0.125q-0.109375 0.046875 -0.296875 0.0625q-0.1875 0.03125 -0.484375 0.03125q-0.28125 0 -0.46875 -0.03125q-0.1875 -0.015625 -0.296875 -0.0625q-0.109375 -0.0625 -0.15625 -0.125q-0.03125 -0.0625 -0.03125 -0.15625l0 -10.546875q0 -0.09375 0.03125 -0.15625q0.03125 -0.0625 0.140625 -0.109375q0.109375 -0.0625 0.265625 -0.078125q0.171875 -0.015625 0.4375 -0.015625q0.265625 0 0.421875 0.015625q0.171875 0.015625 0.265625 0.078125q0.09375 0.046875 0.140625 0.109375q0.046875 0.0625 0.046875 0.15625l0 1.53125q0.421875 -0.625 0.796875 -1.015625q0.390625 -0.40625 0.734375 -0.625q0.34375 -0.234375 0.671875 -0.328125q0.328125 -0.09375 0.671875 -0.09375q0.15625 0 0.34375 0.03125q0.203125 0.015625 0.40625 0.0625q0.21875 0.046875 0.375 0.109375q0.171875 0.046875 0.234375 0.109375q0.078125 0.0625 0.09375 0.109375q0.03125 0.046875 0.046875 0.140625q0.03125 0.078125 0.03125 0.234375q0 0.15625 0 0.421875zm12.0234375 4.46875q0 1.296875 -0.34375 2.375q-0.34375 1.078125 -1.015625 1.875q-0.671875 0.78125 -1.6875 1.21875q-1.015625 0.4375 -2.34375 0.4375q-1.3125 0 -2.28125 -0.375q-0.953125 -0.390625 -1.609375 -1.125q-0.640625 -0.75 -0.953125 -1.796875q-0.3125 -1.0625 -0.3125 -2.390625q0 -1.296875 0.328125 -2.375q0.328125 -1.09375 1.0 -1.875q0.6875 -0.78125 1.6875 -1.21875q1.015625 -0.4375 2.359375 -0.4375q1.296875 0 2.265625 0.390625q0.96875 0.390625 1.609375 1.125q0.640625 0.734375 0.96875 1.796875q0.328125 1.046875 0.328125 2.375zm-2.046875 0.125q0 -0.84375 -0.15625 -1.609375q-0.15625 -0.765625 -0.53125 -1.328125q-0.359375 -0.578125 -0.984375 -0.90625q-0.609375 -0.34375 -1.53125 -0.34375q-0.859375 0 -1.484375 0.3125q-0.609375 0.296875 -1.015625 0.859375q-0.390625 0.546875 -0.59375 1.3125q-0.1875 0.765625 -0.1875 1.65625q0 0.875 0.15625 1.640625q0.171875 0.75 0.53125 1.328125q0.375 0.5625 0.984375 0.90625q0.625 0.328125 1.5625 0.328125q0.84375 0 1.453125 -0.296875q0.625 -0.3125 1.015625 -0.859375q0.40625 -0.5625 0.59375 -1.3125q0.1875 -0.765625 0.1875 -1.6875zm19.640625 -5.296875q0 0.078125 -0.03125 0.203125q-0.015625 0.109375 -0.078125 0.28125l-3.09375 10.015625q-0.046875 0.140625 -0.125 0.21875q-0.0625 0.078125 -0.203125 0.125q-0.140625 0.046875 -0.375 0.0625q-0.234375 0.03125 -0.578125 0.03125q-0.359375 0 -0.609375 -0.03125q-0.25 -0.015625 -0.40625 -0.0625q-0.140625 -0.0625 -0.21875 -0.140625q-0.0625 -0.078125 -0.09375 -0.203125l-2.21875 -7.640625l-0.015625 -0.109375l-0.03125 0.109375l-2.046875 7.640625q-0.03125 0.140625 -0.109375 0.21875q-0.078125 0.078125 -0.234375 0.125q-0.140625 0.046875 -0.390625 0.0625q-0.234375 0.03125 -0.59375 0.03125q-0.359375 0 -0.59375 -0.03125q-0.21875 -0.015625 -0.375 -0.0625q-0.140625 -0.0625 -0.21875 -0.140625q-0.0625 -0.078125 -0.09375 -0.203125l-3.078125 -10.015625q-0.0625 -0.171875 -0.09375 -0.28125q-0.015625 -0.125 -0.015625 -0.203125q0 -0.109375 0.046875 -0.171875q0.046875 -0.0625 0.15625 -0.109375q0.109375 -0.046875 0.296875 -0.046875q0.1875 -0.015625 0.453125 -0.015625q0.328125 0 0.53125 0.015625q0.203125 0.015625 0.296875 0.0625q0.109375 0.03125 0.15625 0.109375q0.046875 0.078125 0.09375 0.1875l2.53125 8.6875l0.03125 0.109375l0.015625 -0.109375l2.34375 -8.6875q0.015625 -0.109375 0.0625 -0.1875q0.0625 -0.078125 0.15625 -0.109375q0.109375 -0.046875 0.296875 -0.0625q0.1875 -0.015625 0.46875 -0.015625q0.28125 0 0.46875 0.015625q0.1875 0.015625 0.28125 0.0625q0.109375 0.03125 0.15625 0.109375q0.046875 0.0625 0.078125 0.15625l2.515625 8.71875l0.015625 0.109375l0.015625 -0.109375l2.515625 -8.6875q0.015625 -0.109375 0.0625 -0.1875q0.0625 -0.078125 0.171875 -0.109375q0.109375 -0.046875 0.296875 -0.0625q0.203125 -0.015625 0.5 -0.015625q0.28125 0 0.453125 0.015625q0.171875 0 0.265625 0.046875q0.109375 0.046875 0.140625 0.109375q0.046875 0.0625 0.046875 0.171875zm9.03125 7.6875q0 0.8125 -0.3125 1.453125q-0.296875 0.625 -0.84375 1.0625q-0.546875 0.4375 -1.3125 0.65625q-0.765625 0.21875 -1.671875 0.21875q-0.5625 0 -1.078125 -0.09375q-0.5 -0.078125 -0.90625 -0.203125q-0.40625 -0.140625 -0.6875 -0.28125q-0.28125 -0.15625 -0.421875 -0.265625q-0.125 -0.125 -0.1875 -0.328125q-0.046875 -0.21875 -0.046875 -0.578125q0 -0.234375 0.015625 -0.375q0.03125 -0.15625 0.0625 -0.25q0.03125 -0.09375 0.09375 -0.125q0.078125 -0.046875 0.15625 -0.046875q0.125 0 0.375 0.15625q0.25 0.15625 0.625 0.34375q0.375 0.1875 0.875 0.34375q0.5 0.15625 1.15625 0.15625q0.5 0 0.890625 -0.09375q0.40625 -0.109375 0.6875 -0.3125q0.296875 -0.21875 0.453125 -0.53125q0.15625 -0.3125 0.15625 -0.75q0 -0.4375 -0.234375 -0.734375q-0.21875 -0.3125 -0.59375 -0.546875q-0.375 -0.234375 -0.84375 -0.421875q-0.46875 -0.1875 -0.96875 -0.375q-0.5 -0.203125 -0.96875 -0.453125q-0.46875 -0.25 -0.84375 -0.609375q-0.375 -0.375 -0.609375 -0.875q-0.234375 -0.5 -0.234375 -1.203125q0 -0.625 0.234375 -1.1875q0.25 -0.578125 0.734375 -1.0q0.484375 -0.4375 1.203125 -0.6875q0.71875 -0.265625 1.671875 -0.265625q0.421875 0 0.84375 0.078125q0.421875 0.0625 0.765625 0.171875q0.34375 0.109375 0.578125 0.234375q0.25 0.125 0.359375 0.21875q0.125 0.09375 0.171875 0.171875q0.046875 0.0625 0.0625 0.15625q0.015625 0.078125 0.03125 0.203125q0.015625 0.125 0.015625 0.3125q0 0.203125 -0.015625 0.359375q-0.015625 0.140625 -0.0625 0.234375q-0.03125 0.09375 -0.09375 0.140625q-0.0625 0.03125 -0.125 0.03125q-0.109375 0 -0.3125 -0.125q-0.203125 -0.125 -0.515625 -0.265625q-0.3125 -0.15625 -0.75 -0.28125q-0.421875 -0.140625 -0.96875 -0.140625q-0.5 0 -0.875 0.125q-0.375 0.109375 -0.609375 0.3125q-0.234375 0.203125 -0.359375 0.484375q-0.125 0.28125 -0.125 0.609375q0 0.453125 0.234375 0.765625q0.234375 0.3125 0.609375 0.546875q0.375 0.234375 0.84375 0.421875q0.484375 0.1875 0.984375 0.390625q0.5 0.1875 0.984375 0.4375q0.484375 0.25 0.859375 0.609375q0.375 0.34375 0.609375 0.84375q0.234375 0.484375 0.234375 1.15625zm11.761719 -2.859375q0 0.46875 -0.234375 0.65625q-0.21875 0.1875 -0.515625 0.1875l-6.921875 0q0 0.890625 0.171875 1.59375q0.1875 0.703125 0.59375 1.203125q0.40625 0.5 1.0625 0.78125q0.65625 0.265625 1.609375 0.265625q0.75 0 1.328125 -0.125q0.59375 -0.125 1.015625 -0.28125q0.4375 -0.15625 0.703125 -0.265625q0.28125 -0.125 0.421875 -0.125q0.078125 0 0.140625 0.046875q0.078125 0.03125 0.109375 0.109375q0.03125 0.078125 0.046875 0.234375q0.015625 0.140625 0.015625 0.359375q0 0.140625 -0.015625 0.265625q0 0.109375 -0.015625 0.203125q-0.015625 0.078125 -0.0625 0.15625q-0.046875 0.0625 -0.109375 0.125q-0.0625 0.0625 -0.375 0.21875q-0.3125 0.140625 -0.828125 0.28125q-0.5 0.140625 -1.171875 0.25q-0.65625 0.109375 -1.40625 0.109375q-1.296875 0 -2.28125 -0.359375q-0.96875 -0.359375 -1.640625 -1.078125q-0.671875 -0.71875 -1.015625 -1.796875q-0.328125 -1.078125 -0.328125 -2.5q0 -1.359375 0.34375 -2.4375q0.359375 -1.09375 1.015625 -1.84375q0.671875 -0.765625 1.609375 -1.171875q0.9375 -0.40625 2.09375 -0.40625q1.234375 0 2.109375 0.40625q0.875 0.390625 1.4375 1.078125q0.5625 0.671875 0.828125 1.578125q0.265625 0.90625 0.265625 1.9375l0 0.34375zm-1.953125 -0.5625q0.046875 -1.53125 -0.671875 -2.390625q-0.703125 -0.875 -2.09375 -0.875q-0.71875 0 -1.265625 0.28125q-0.53125 0.265625 -0.90625 0.71875q-0.359375 0.4375 -0.5625 1.03125q-0.1875 0.578125 -0.21875 1.234375l5.71875 0zm11.050781 -3.5625q0 0.265625 -0.015625 0.4375q0 0.171875 -0.046875 0.28125q-0.03125 0.09375 -0.078125 0.15625q-0.046875 0.046875 -0.140625 0.046875q-0.09375 0 -0.234375 -0.046875q-0.140625 -0.0625 -0.3125 -0.109375q-0.15625 -0.0625 -0.375 -0.109375q-0.203125 -0.046875 -0.453125 -0.046875q-0.296875 0 -0.578125 0.125q-0.28125 0.109375 -0.59375 0.390625q-0.3125 0.265625 -0.65625 0.71875q-0.328125 0.4375 -0.734375 1.078125l0 6.9375q0 0.09375 -0.046875 0.15625q-0.046875 0.0625 -0.15625 0.125q-0.109375 0.046875 -0.296875 0.0625q-0.1875 0.03125 -0.484375 0.03125q-0.28125 0 -0.46875 -0.03125q-0.1875 -0.015625 -0.296875 -0.0625q-0.109375 -0.0625 -0.15625 -0.125q-0.03125 -0.0625 -0.03125 -0.15625l0 -10.546875q0 -0.09375 0.03125 -0.15625q0.03125 -0.0625 0.140625 -0.109375q0.109375 -0.0625 0.265625 -0.078125q0.171875 -0.015625 0.4375 -0.015625q0.265625 0 0.421875 0.015625q0.171875 0.015625 0.265625 0.078125q0.09375 0.046875 0.140625 0.109375q0.046875 0.0625 0.046875 0.15625l0 1.53125q0.421875 -0.625 0.796875 -1.015625q0.390625 -0.40625 0.734375 -0.625q0.34375 -0.234375 0.671875 -0.328125q0.328125 -0.09375 0.671875 -0.09375q0.15625 0 0.34375 0.03125q0.203125 0.015625 0.40625 0.0625q0.21875 0.046875 0.375 0.109375q0.171875 0.046875 0.234375 0.109375q0.078125 0.0625 0.09375 0.109375q0.03125 0.046875 0.046875 0.140625q0.03125 0.078125 0.03125 0.234375q0 0.15625 0 0.421875z" fill-rule="nonzero"></path><path fill="#b7cce4" d="m411.48273 116.13302l156.33185 0l0 71.99999l-156.33185 0z" fill-rule="nonzero"></path><path stroke="#000000" stroke-width="1.0" stroke-linejoin="round" stroke-linecap="butt" d="m411.48273 116.13302l156.33185 0l0 71.99999l-156.33185 0z" fill-rule="nonzero"></path><path fill="#000000" d="m473.63693 132.45427q0 1.125 -0.375 2.046875q-0.375 0.90625 -1.078125 1.5625q-0.6875 0.640625 -1.703125 1.0q-1.015625 0.34375 -2.421875 0.34375l-1.71875 0l0 5.453125q0 0.09375 -0.0625 0.171875q-0.046875 0.0625 -0.15625 0.109375q-0.109375 0.046875 -0.3125 0.078125q-0.1875 0.03125 -0.46875 0.03125q-0.296875 0 -0.5 -0.03125q-0.1875 -0.03125 -0.3125 -0.078125q-0.109375 -0.046875 -0.15625 -0.109375q-0.046875 -0.078125 -0.046875 -0.171875l0 -13.984375q0 -0.46875 0.25 -0.671875q0.25 -0.203125 0.546875 -0.203125l3.25 0q0.484375 0 0.9375 0.046875q0.453125 0.046875 1.0625 0.1875q0.625 0.125 1.265625 0.5q0.640625 0.359375 1.078125 0.90625q0.453125 0.53125 0.6875 1.25q0.234375 0.703125 0.234375 1.5625zm-2.109375 0.15625q0 -0.921875 -0.359375 -1.546875q-0.34375 -0.625 -0.859375 -0.921875q-0.5 -0.3125 -1.046875 -0.390625q-0.546875 -0.078125 -1.0625 -0.078125l-1.859375 0l0 6.078125l1.8125 0q0.921875 0 1.515625 -0.234375q0.609375 -0.234375 1.015625 -0.640625q0.421875 -0.421875 0.625 -1.0q0.21875 -0.578125 0.21875 -1.265625zm11.1328125 0.40625q0 0.265625 -0.015625 0.4375q0 0.171875 -0.046875 0.28125q-0.03125 0.09375 -0.078125 0.15625q-0.046875 0.046875 -0.140625 0.046875q-0.09375 0 -0.234375 -0.046875q-0.140625 -0.0625 -0.3125 -0.109375q-0.15625 -0.0625 -0.375 -0.109375q-0.203125 -0.046875 -0.453125 -0.046875q-0.296875 0 -0.578125 0.125q-0.28125 0.109375 -0.59375 0.390625q-0.3125 0.265625 -0.65625 0.71875q-0.328125 0.4375 -0.734375 1.078125l0 6.9375q0 0.09375 -0.046875 0.15625q-0.046875 0.0625 -0.15625 0.125q-0.109375 0.046875 -0.296875 0.0625q-0.1875 0.03125 -0.484375 0.03125q-0.28125 0 -0.46875 -0.03125q-0.1875 -0.015625 -0.296875 -0.0625q-0.109375 -0.0625 -0.15625 -0.125q-0.03125 -0.0625 -0.03125 -0.15625l0 -10.546875q0 -0.09375 0.03125 -0.15625q0.03125 -0.0625 0.140625 -0.109375q0.109375 -0.0625 0.265625 -0.078125q0.171875 -0.015625 0.4375 -0.015625q0.265625 0 0.421875 0.015625q0.171875 0.015625 0.265625 0.078125q0.09375 0.046875 0.140625 0.109375q0.046875 0.0625 0.046875 0.15625l0 1.53125q0.421875 -0.625 0.796875 -1.015625q0.390625 -0.40625 0.734375 -0.625q0.34375 -0.234375 0.671875 -0.328125q0.328125 -0.09375 0.671875 -0.09375q0.15625 0 0.34375 0.03125q0.203125 0.015625 0.40625 0.0625q0.21875 0.046875 0.375 0.109375q0.171875 0.046875 0.234375 0.109375q0.078125 0.0625 0.09375 0.109375q0.03125 0.046875 0.046875 0.140625q0.03125 0.078125 0.03125 0.234375q0 0.15625 0 0.421875zm12.0234375 4.46875q0 1.296875 -0.34375 2.375q-0.34375 1.078125 -1.015625 1.875q-0.671875 0.78125 -1.6875 1.21875q-1.015625 0.4375 -2.34375 0.4375q-1.3125 0 -2.28125 -0.375q-0.953125 -0.390625 -1.609375 -1.125q-0.640625 -0.75 -0.953125 -1.796875q-0.3125 -1.0625 -0.3125 -2.390625q0 -1.296875 0.328125 -2.375q0.328125 -1.09375 1.0 -1.875q0.6875 -0.78125 1.6875 -1.21875q1.015625 -0.4375 2.359375 -0.4375q1.296875 0 2.265625 0.390625q0.96875 0.390625 1.609375 1.125q0.640625 0.734375 0.96875 1.796875q0.328125 1.046875 0.328125 2.375zm-2.046875 0.125q0 -0.84375 -0.15625 -1.609375q-0.15625 -0.765625 -0.53125 -1.328125q-0.359375 -0.578125 -0.984375 -0.90625q-0.609375 -0.34375 -1.53125 -0.34375q-0.859375 0 -1.484375 0.3125q-0.609375 0.296875 -1.015625 0.859375q-0.390625 0.546875 -0.59375 1.3125q-0.1875 0.765625 -0.1875 1.65625q0 0.875 0.15625 1.640625q0.171875 0.75 0.53125 1.328125q0.375 0.5625 0.984375 0.90625q0.625 0.328125 1.5625 0.328125q0.84375 0 1.453125 -0.296875q0.625 -0.3125 1.015625 -0.859375q0.40625 -0.5625 0.59375 -1.3125q0.1875 -0.765625 0.1875 -1.6875zm12.875 5.046875q0.09375 0.15625 0.09375 0.28125q0 0.109375 -0.109375 0.1875q-0.109375 0.0625 -0.34375 0.09375q-0.21875 0.03125 -0.578125 0.03125q-0.359375 0 -0.5625 -0.03125q-0.203125 -0.015625 -0.328125 -0.046875q-0.125 -0.046875 -0.1875 -0.109375q-0.0625 -0.0625 -0.109375 -0.15625l-2.53125 -4.171875l-2.515625 4.171875q-0.046875 0.09375 -0.125 0.15625q-0.0625 0.0625 -0.1875 0.109375q-0.109375 0.03125 -0.3125 0.046875q-0.203125 0.03125 -0.53125 0.03125q-0.34375 0 -0.5625 -0.03125q-0.203125 -0.03125 -0.3125 -0.09375q-0.09375 -0.078125 -0.09375 -0.1875q0.015625 -0.125 0.109375 -0.28125l3.28125 -5.140625l-3.09375 -4.96875q-0.09375 -0.15625 -0.109375 -0.265625q0 -0.109375 0.109375 -0.1875q0.109375 -0.078125 0.328125 -0.09375q0.234375 -0.03125 0.609375 -0.03125q0.34375 0 0.546875 0.015625q0.203125 0.015625 0.3125 0.0625q0.125 0.03125 0.1875 0.09375q0.0625 0.046875 0.109375 0.125l2.40625 3.9375l2.4375 -3.9375q0.046875 -0.0625 0.09375 -0.125q0.0625 -0.0625 0.15625 -0.09375q0.109375 -0.046875 0.28125 -0.0625q0.1875 -0.015625 0.5 -0.015625q0.34375 0 0.5625 0.03125q0.21875 0.015625 0.3125 0.078125q0.109375 0.0625 0.09375 0.1875q0 0.109375 -0.109375 0.28125l-3.078125 4.90625l3.25 5.203125zm7.207062 0.515625l-1.4062805 3.875q-0.0625 0.1875 -0.359375 0.28125q-0.28125 0.109375 -0.859375 0.109375q-0.3125 0 -0.5 -0.03125q-0.1875 -0.03125 -0.296875 -0.109375q-0.09375 -0.0625 -0.109375 -0.1875q0 -0.109375 0.0625 -0.265625l1.453125 -3.671875q-0.09375 -0.046875 -0.1875 -0.15625q-0.09375 -0.109375 -0.140625 -0.21875l-3.75 -10.078125q-0.09375 -0.25 -0.09375 -0.390625q0 -0.140625 0.09375 -0.21875q0.09375 -0.078125 0.296875 -0.109375q0.21875 -0.03125 0.5625 -0.03125q0.359375 0 0.546875 0.015625q0.203125 0.015625 0.3125 0.0625q0.125 0.046875 0.171875 0.140625q0.0625 0.078125 0.125 0.234375l3.0 8.46875l0.046875 0l2.9062805 -8.515625q0.0625 -0.21875 0.15625 -0.28125q0.109375 -0.0625 0.296875 -0.09375q0.203125 -0.03125 0.578125 -0.03125q0.328125 0 0.53125 0.03125q0.21875 0.03125 0.3125 0.109375q0.109375 0.078125 0.109375 0.21875q0 0.140625 -0.0625 0.359375l-3.796875 10.484375z" fill-rule="nonzero"></path><path fill="#b7cce4" d="m306.84714 272.30728l156.33185 0l0 76.53439l-156.33185 0z" fill-rule="nonzero"></path><path stroke="#000000" stroke-width="1.0" stroke-linejoin="round" stroke-linecap="butt" d="m306.84714 272.30728l156.33185 0l0 76.53439l-156.33185 0z" fill-rule="nonzero"></path><path fill="#000000" d="m387.71228 293.7379q0 1.390625 -0.40625 2.484375q-0.40625 1.078125 -1.15625 1.828125q-0.75 0.75 -1.828125 1.140625q-1.078125 0.375 -2.453125 0.375q-1.25 0 -2.28125 -0.359375q-1.03125 -0.359375 -1.765625 -1.0625q-0.734375 -0.71875 -1.140625 -1.78125q-0.390625 -1.078125 -0.390625 -2.46875l0 -9.40625q0 -0.09375 0.046875 -0.15625q0.046875 -0.078125 0.15625 -0.109375q0.125 -0.046875 0.3125 -0.078125q0.1875 -0.03125 0.484375 -0.03125q0.28125 0 0.484375 0.03125q0.203125 0.03125 0.3125 0.078125q0.109375 0.03125 0.15625 0.109375q0.046875 0.0625 0.046875 0.15625l0 9.15625q0 1.0625 0.25 1.84375q0.265625 0.78125 0.75 1.3125q0.484375 0.515625 1.171875 0.78125q0.6875 0.265625 1.546875 0.265625q0.875 0 1.5625 -0.25q0.6875 -0.265625 1.15625 -0.78125q0.46875 -0.515625 0.71875 -1.28125q0.265625 -0.765625 0.265625 -1.78125l0 -9.265625q0 -0.09375 0.046875 -0.15625q0.046875 -0.078125 0.15625 -0.109375q0.125 -0.046875 0.3125 -0.078125q0.1875 -0.03125 0.484375 -0.03125q0.28125 0 0.46875 0.03125q0.203125 0.03125 0.3125 0.078125q0.109375 0.03125 0.15625 0.109375q0.0625 0.0625 0.0625 0.15625l0 9.25zm6.0078125 5.296875q0 0.09375 -0.046875 0.171875q-0.046875 0.0625 -0.171875 0.109375q-0.109375 0.046875 -0.3125 0.078125q-0.1875 0.03125 -0.46875 0.03125q-0.28125 0 -0.484375 -0.03125q-0.203125 -0.03125 -0.328125 -0.078125q-0.109375 -0.046875 -0.15625 -0.109375q-0.046875 -0.078125 -0.046875 -0.171875l0 -14.546875q0 -0.09375 0.046875 -0.15625q0.0625 -0.078125 0.1875 -0.109375q0.125 -0.046875 0.3125 -0.078125q0.1875 -0.03125 0.46875 -0.03125q0.28125 0 0.46875 0.03125q0.203125 0.03125 0.3125 0.078125q0.125 0.03125 0.171875 0.109375q0.046875 0.0625 0.046875 0.15625l0 14.546875z" fill-rule="nonzero"></path><path fill="#000000" d="m333.46814 324.51917q0 0.90625 -0.171875 1.65625q-0.15625 0.75 -0.5625 1.28125q-0.390625 0.53125 -1.046875 0.828125q-0.640625 0.28125 -1.609375 0.28125q-0.328125 0 -0.65625 -0.0625q-0.3125 -0.046875 -0.578125 -0.140625q-0.265625 -0.09375 -0.46875 -0.1875q-0.203125 -0.09375 -0.265625 -0.15625q-0.0625 -0.078125 -0.109375 -0.140625q-0.03125 -0.078125 -0.0625 -0.171875q-0.03125 -0.109375 -0.046875 -0.25q-0.015625 -0.15625 -0.015625 -0.359375q0 -0.265625 0.015625 -0.4375q0.03125 -0.171875 0.078125 -0.265625q0.046875 -0.09375 0.109375 -0.140625q0.0625 -0.046875 0.15625 -0.046875q0.09375 0 0.234375 0.09375q0.15625 0.09375 0.359375 0.203125q0.203125 0.09375 0.46875 0.1875q0.265625 0.078125 0.640625 0.078125q0.390625 0 0.671875 -0.09375q0.28125 -0.09375 0.46875 -0.359375q0.1875 -0.28125 0.28125 -0.75q0.09375 -0.484375 0.09375 -1.234375l0 -10.859375q0 -0.078125 0.046875 -0.140625q0.046875 -0.078125 0.15625 -0.125q0.125 -0.046875 0.3125 -0.0625q0.203125 -0.03125 0.5 -0.03125q0.28125 0 0.46875 0.03125q0.203125 0.015625 0.3125 0.0625q0.109375 0.046875 0.15625 0.125q0.0625 0.0625 0.0625 0.140625l0 11.046875zm12.136719 -0.421875q0 1.0625 -0.390625 1.890625q-0.390625 0.828125 -1.09375 1.421875q-0.6875 0.578125 -1.640625 0.875q-0.9375 0.28125 -2.03125 0.28125q-0.75 0 -1.40625 -0.125q-0.65625 -0.125 -1.171875 -0.3125q-0.5 -0.1875 -0.84375 -0.390625q-0.34375 -0.203125 -0.484375 -0.34375q-0.125 -0.140625 -0.203125 -0.359375q-0.0625 -0.21875 -0.0625 -0.578125q0 -0.25 0.015625 -0.421875q0.03125 -0.171875 0.078125 -0.28125q0.046875 -0.109375 0.109375 -0.140625q0.078125 -0.046875 0.171875 -0.046875q0.171875 0 0.46875 0.203125q0.296875 0.203125 0.765625 0.4375q0.46875 0.234375 1.125 0.4375q0.671875 0.203125 1.53125 0.203125q0.65625 0 1.203125 -0.171875q0.546875 -0.1875 0.9375 -0.5q0.390625 -0.328125 0.59375 -0.796875q0.21875 -0.46875 0.21875 -1.0625q0 -0.640625 -0.296875 -1.09375q-0.28125 -0.46875 -0.765625 -0.8125q-0.484375 -0.34375 -1.09375 -0.625q-0.609375 -0.296875 -1.265625 -0.59375q-0.640625 -0.296875 -1.25 -0.65625q-0.609375 -0.375 -1.09375 -0.859375q-0.46875 -0.5 -0.78125 -1.15625q-0.296875 -0.65625 -0.296875 -1.59375q0 -0.9375 0.34375 -1.6875q0.359375 -0.75 0.96875 -1.25q0.609375 -0.5 1.453125 -0.765625q0.859375 -0.265625 1.84375 -0.265625q0.5 0 1.015625 0.09375q0.515625 0.078125 0.953125 0.234375q0.453125 0.140625 0.796875 0.328125q0.359375 0.171875 0.46875 0.296875q0.125 0.109375 0.15625 0.171875q0.03125 0.0625 0.046875 0.171875q0.03125 0.09375 0.046875 0.234375q0.015625 0.140625 0.015625 0.359375q0 0.203125 -0.03125 0.375q-0.015625 0.15625 -0.046875 0.28125q-0.03125 0.109375 -0.09375 0.15625q-0.0625 0.046875 -0.15625 0.046875q-0.125 0 -0.40625 -0.15625q-0.265625 -0.171875 -0.671875 -0.375q-0.390625 -0.203125 -0.9375 -0.375q-0.546875 -0.171875 -1.21875 -0.171875q-0.640625 0 -1.109375 0.171875q-0.46875 0.171875 -0.78125 0.453125q-0.296875 0.28125 -0.453125 0.671875q-0.140625 0.390625 -0.140625 0.8125q0 0.640625 0.28125 1.09375q0.296875 0.453125 0.78125 0.8125q0.484375 0.34375 1.109375 0.640625q0.625 0.296875 1.265625 0.59375q0.640625 0.296875 1.265625 0.65625q0.625 0.359375 1.109375 0.84375q0.484375 0.484375 0.78125 1.15625q0.296875 0.65625 0.296875 1.5625zm12.09375 -11.90625q-1.109375 2.359375 -1.65625 4.84375q-0.546875 2.46875 -0.546875 4.984375q0 2.515625 0.5625 5.0q0.5625 2.46875 1.625 4.84375q0.0625 0.140625 0.0625 0.234375q0 0.109375 -0.078125 0.171875q-0.078125 0.0625 -0.25 0.09375q-0.171875 0.03125 -0.46875 0.03125q-0.203125 0 -0.359375 -0.015625q-0.15625 -0.015625 -0.265625 -0.046875q-0.109375 -0.03125 -0.1875 -0.078125q-0.0625 -0.046875 -0.09375 -0.109375q-0.640625 -1.1875 -1.125 -2.421875q-0.46875 -1.21875 -0.796875 -2.484375q-0.328125 -1.265625 -0.5 -2.5625q-0.15625 -1.296875 -0.15625 -2.625q0 -1.328125 0.171875 -2.609375q0.1875 -1.296875 0.515625 -2.5625q0.34375 -1.265625 0.8125 -2.5q0.484375 -1.234375 1.09375 -2.4375q0 -0.046875 0.046875 -0.078125q0.0625 -0.046875 0.15625 -0.078125q0.09375 -0.03125 0.25 -0.046875q0.171875 -0.015625 0.4375 -0.015625q0.265625 0 0.421875 0.03125q0.171875 0.03125 0.265625 0.09375q0.09375 0.0625 0.09375 0.15625q0.015625 0.09375 -0.03125 0.1875zm14.855469 15.4375q0.09375 0.265625 0.09375 0.421875q0.015625 0.15625 -0.078125 0.25q-0.09375 0.078125 -0.3125 0.09375q-0.21875 0.03125 -0.578125 0.03125q-0.375 0 -0.59375 -0.03125q-0.203125 -0.015625 -0.328125 -0.046875q-0.109375 -0.046875 -0.15625 -0.109375q-0.046875 -0.078125 -0.09375 -0.1875l-1.3125 -3.6875l-6.296875 0l-1.25 3.640625q-0.03125 0.109375 -0.09375 0.1875q-0.046875 0.078125 -0.171875 0.140625q-0.109375 0.046875 -0.3125 0.0625q-0.203125 0.03125 -0.53125 0.03125q-0.34375 0 -0.5625 -0.03125q-0.203125 -0.03125 -0.296875 -0.109375q-0.09375 -0.09375 -0.09375 -0.25q0.015625 -0.15625 0.109375 -0.421875l5.09375 -14.078125q0.046875 -0.125 0.109375 -0.203125q0.078125 -0.09375 0.21875 -0.140625q0.15625 -0.046875 0.375 -0.0625q0.234375 -0.015625 0.59375 -0.015625q0.375 0 0.609375 0.015625q0.25 0.015625 0.40625 0.0625q0.15625 0.046875 0.234375 0.140625q0.078125 0.078125 0.125 0.21875l5.09375 14.078125zm-6.53125 -12.4375l-0.015625 0l-2.609375 7.5625l5.28125 0l-2.65625 -7.5625zm17.917969 12.859375q0 0.09375 -0.046875 0.15625q-0.046875 0.0625 -0.15625 0.125q-0.09375 0.046875 -0.28125 0.0625q-0.1875 0.03125 -0.46875 0.03125q-0.296875 0 -0.484375 -0.03125q-0.1875 -0.015625 -0.296875 -0.0625q-0.109375 -0.0625 -0.15625 -0.125q-0.046875 -0.0625 -0.046875 -0.15625l0 -6.171875q0 -0.90625 -0.140625 -1.453125q-0.140625 -0.546875 -0.40625 -0.9375q-0.265625 -0.40625 -0.703125 -0.609375q-0.421875 -0.21875 -0.984375 -0.21875q-0.71875 0 -1.453125 0.515625q-0.71875 0.515625 -1.515625 1.5l0 7.375q0 0.09375 -0.046875 0.15625q-0.046875 0.0625 -0.15625 0.125q-0.109375 0.046875 -0.296875 0.0625q-0.1875 0.03125 -0.484375 0.03125q-0.28125 0 -0.46875 -0.03125q-0.1875 -0.015625 -0.296875 -0.0625q-0.109375 -0.0625 -0.15625 -0.125q-0.03125 -0.0625 -0.03125 -0.15625l0 -10.546875q0 -0.09375 0.03125 -0.15625q0.03125 -0.0625 0.140625 -0.109375q0.109375 -0.0625 0.265625 -0.078125q0.171875 -0.015625 0.4375 -0.015625q0.265625 0 0.421875 0.015625q0.171875 0.015625 0.265625 0.078125q0.09375 0.046875 0.140625 0.109375q0.046875 0.0625 0.046875 0.15625l0 1.390625q0.890625 -0.984375 1.765625 -1.453125q0.890625 -0.46875 1.796875 -0.46875q1.046875 0 1.765625 0.359375q0.71875 0.359375 1.15625 0.96875q0.453125 0.59375 0.640625 1.390625q0.203125 0.796875 0.203125 1.921875l0 6.4375zm12.34375 -10.0625q0 0.40625 -0.109375 0.59375q-0.109375 0.171875 -0.296875 0.171875l-1.5 0q0.40625 0.421875 0.5625 0.9375q0.171875 0.515625 0.171875 1.0625q0 0.90625 -0.296875 1.609375q-0.296875 0.703125 -0.84375 1.203125q-0.53125 0.484375 -1.28125 0.75q-0.75 0.25 -1.671875 0.25q-0.640625 0 -1.21875 -0.171875q-0.578125 -0.171875 -0.90625 -0.4375q-0.203125 0.21875 -0.34375 0.484375q-0.125 0.265625 -0.125 0.625q0 0.40625 0.375 0.6875q0.375 0.265625 1.015625 0.28125l2.75 0.125q0.78125 0.015625 1.4375 0.21875q0.65625 0.1875 1.140625 0.546875q0.484375 0.359375 0.75 0.875q0.265625 0.515625 0.265625 1.21875q0 0.71875 -0.3125 1.375q-0.296875 0.65625 -0.921875 1.15625q-0.625 0.5 -1.59375 0.78125q-0.96875 0.296875 -2.296875 0.296875q-1.28125 0 -2.1875 -0.21875q-0.890625 -0.21875 -1.46875 -0.59375q-0.5625 -0.375 -0.828125 -0.90625q-0.25 -0.515625 -0.25 -1.125q0 -0.375 0.09375 -0.75q0.09375 -0.359375 0.28125 -0.6875q0.203125 -0.328125 0.484375 -0.625q0.28125 -0.296875 0.65625 -0.59375q-0.5625 -0.296875 -0.84375 -0.734375q-0.28125 -0.453125 -0.28125 -0.96875q0 -0.71875 0.296875 -1.28125q0.296875 -0.5625 0.734375 -1.0q-0.375 -0.4375 -0.59375 -0.984375q-0.203125 -0.546875 -0.203125 -1.3125q0 -0.90625 0.296875 -1.609375q0.3125 -0.71875 0.84375 -1.203125q0.546875 -0.5 1.296875 -0.765625q0.765625 -0.265625 1.65625 -0.265625q0.484375 0 0.890625 0.0625q0.421875 0.046875 0.78125 0.140625l3.1875 0q0.203125 0 0.296875 0.1875q0.109375 0.1875 0.109375 0.59375zm-3.03125 2.78125q0 -1.078125 -0.59375 -1.6875q-0.578125 -0.609375 -1.671875 -0.609375q-0.5625 0 -0.984375 0.1875q-0.40625 0.1875 -0.6875 0.515625q-0.28125 0.328125 -0.421875 0.765625q-0.125 0.421875 -0.125 0.890625q0 1.046875 0.59375 1.640625q0.59375 0.59375 1.65625 0.59375q0.578125 0 1.0 -0.171875q0.421875 -0.1875 0.6875 -0.5q0.28125 -0.328125 0.40625 -0.75q0.140625 -0.421875 0.140625 -0.875zm0.984375 8.359375q0 -0.6875 -0.5625 -1.046875q-0.5625 -0.375 -1.5 -0.40625l-2.734375 -0.09375q-0.375 0.296875 -0.625 0.5625q-0.234375 0.265625 -0.375 0.5q-0.140625 0.25 -0.203125 0.484375q-0.046875 0.234375 -0.046875 0.46875q0 0.765625 0.765625 1.15625q0.78125 0.390625 2.171875 0.390625q0.875 0 1.46875 -0.171875q0.59375 -0.15625 0.953125 -0.4375q0.359375 -0.28125 0.515625 -0.65625q0.171875 -0.359375 0.171875 -0.75zm13.5625 -1.078125q0 0.09375 -0.046875 0.15625q-0.03125 0.0625 -0.140625 0.125q-0.109375 0.046875 -0.28125 0.0625q-0.15625 0.03125 -0.40625 0.03125q-0.265625 0 -0.4375 -0.03125q-0.171875 -0.015625 -0.28125 -0.0625q-0.09375 -0.0625 -0.125 -0.125q-0.03125 -0.0625 -0.03125 -0.15625l0 -1.390625q-0.90625 1.0 -1.796875 1.453125q-0.875 0.453125 -1.765625 0.453125q-1.0625 0 -1.78125 -0.34375q-0.71875 -0.359375 -1.171875 -0.953125q-0.4375 -0.609375 -0.640625 -1.40625q-0.1875 -0.8125 -0.1875 -1.953125l0 -6.40625q0 -0.09375 0.03125 -0.15625q0.046875 -0.0625 0.15625 -0.109375q0.125 -0.0625 0.3125 -0.078125q0.1875 -0.015625 0.46875 -0.015625q0.28125 0 0.46875 0.015625q0.1875 0.015625 0.296875 0.078125q0.125 0.046875 0.171875 0.109375q0.046875 0.0625 0.046875 0.15625l0 6.140625q0 0.921875 0.125 1.484375q0.140625 0.5625 0.40625 0.953125q0.28125 0.390625 0.703125 0.609375q0.421875 0.21875 0.984375 0.21875q0.734375 0 1.453125 -0.515625q0.71875 -0.515625 1.53125 -1.515625l0 -7.375q0 -0.09375 0.03125 -0.15625q0.046875 -0.0625 0.15625 -0.109375q0.125 -0.0625 0.296875 -0.078125q0.1875 -0.015625 0.484375 -0.015625q0.28125 0 0.46875 0.015625q0.1875 0.015625 0.28125 0.078125q0.109375 0.046875 0.15625 0.109375q0.0625 0.0625 0.0625 0.15625l0 10.546875zm5.515625 0q0 0.09375 -0.046875 0.15625q-0.046875 0.0625 -0.15625 0.125q-0.109375 0.046875 -0.296875 0.0625q-0.1875 0.03125 -0.484375 0.03125q-0.28125 0 -0.46875 -0.03125q-0.1875 -0.015625 -0.296875 -0.0625q-0.109375 -0.0625 -0.15625 -0.125q-0.03125 -0.0625 -0.03125 -0.15625l0 -15.65625q0 -0.09375 0.03125 -0.15625q0.046875 -0.078125 0.15625 -0.125q0.109375 -0.046875 0.296875 -0.0625q0.1875 -0.03125 0.46875 -0.03125q0.296875 0 0.484375 0.03125q0.1875 0.015625 0.296875 0.0625q0.109375 0.046875 0.15625 0.125q0.046875 0.0625 0.046875 0.15625l0 15.65625zm11.5078125 0.015625q0 0.140625 -0.09375 0.21875q-0.09375 0.0625 -0.265625 0.09375q-0.15625 0.046875 -0.46875 0.046875q-0.296875 0 -0.484375 -0.046875q-0.1875 -0.03125 -0.265625 -0.09375q-0.078125 -0.078125 -0.078125 -0.21875l0 -1.0625q-0.6875 0.75 -1.546875 1.15625q-0.84375 0.40625 -1.796875 0.40625q-0.828125 0 -1.5 -0.21875q-0.671875 -0.21875 -1.15625 -0.625q-0.46875 -0.40625 -0.734375 -1.0q-0.265625 -0.609375 -0.265625 -1.359375q0 -0.890625 0.359375 -1.546875q0.375 -0.65625 1.046875 -1.09375q0.6875 -0.4375 1.671875 -0.65625q0.984375 -0.21875 2.203125 -0.21875l1.453125 0l0 -0.8125q0 -0.609375 -0.125 -1.078125q-0.125 -0.46875 -0.421875 -0.78125q-0.28125 -0.3125 -0.734375 -0.46875q-0.453125 -0.15625 -1.125 -0.15625q-0.71875 0 -1.296875 0.171875q-0.5625 0.171875 -0.984375 0.375q-0.421875 0.203125 -0.71875 0.375q-0.28125 0.171875 -0.421875 0.171875q-0.09375 0 -0.171875 -0.046875q-0.0625 -0.046875 -0.125 -0.140625q-0.046875 -0.09375 -0.078125 -0.234375q-0.015625 -0.15625 -0.015625 -0.328125q0 -0.296875 0.03125 -0.46875q0.046875 -0.171875 0.203125 -0.3125q0.171875 -0.15625 0.546875 -0.359375q0.390625 -0.21875 0.890625 -0.375q0.515625 -0.171875 1.109375 -0.28125q0.59375 -0.125 1.203125 -0.125q1.140625 0 1.9375 0.265625q0.796875 0.25 1.28125 0.75q0.5 0.5 0.71875 1.25q0.21875 0.734375 0.21875 1.71875l0 7.109375zm-1.921875 -4.8125l-1.640625 0q-0.796875 0 -1.390625 0.140625q-0.578125 0.125 -0.96875 0.390625q-0.390625 0.265625 -0.578125 0.640625q-0.171875 0.359375 -0.171875 0.84375q0 0.8125 0.515625 1.296875q0.53125 0.484375 1.46875 0.484375q0.75 0 1.40625 -0.375q0.65625 -0.390625 1.359375 -1.1875l0 -2.234375zm11.636719 -5.0625q0 0.265625 -0.015625 0.4375q0 0.171875 -0.046875 0.28125q-0.03125 0.09375 -0.078125 0.15625q-0.046875 0.046875 -0.140625 0.046875q-0.09375 0 -0.234375 -0.046875q-0.140625 -0.0625 -0.3125 -0.109375q-0.15625 -0.0625 -0.375 -0.109375q-0.203125 -0.046875 -0.453125 -0.046875q-0.296875 0 -0.578125 0.125q-0.28125 0.109375 -0.59375 0.390625q-0.3125 0.265625 -0.65625 0.71875q-0.328125 0.4375 -0.734375 1.078125l0 6.9375q0 0.09375 -0.046875 0.15625q-0.046875 0.0625 -0.15625 0.125q-0.109375 0.046875 -0.296875 0.0625q-0.1875 0.03125 -0.484375 0.03125q-0.28125 0 -0.46875 -0.03125q-0.1875 -0.015625 -0.296875 -0.0625q-0.109375 -0.0625 -0.15625 -0.125q-0.03125 -0.0625 -0.03125 -0.15625l0 -10.546875q0 -0.09375 0.03125 -0.15625q0.03125 -0.0625 0.140625 -0.109375q0.109375 -0.0625 0.265625 -0.078125q0.171875 -0.015625 0.4375 -0.015625q0.265625 0 0.421875 0.015625q0.171875 0.015625 0.265625 0.078125q0.09375 0.046875 0.140625 0.109375q0.046875 0.0625 0.046875 0.15625l0 1.53125q0.421875 -0.625 0.796875 -1.015625q0.390625 -0.40625 0.734375 -0.625q0.34375 -0.234375 0.671875 -0.328125q0.328125 -0.09375 0.671875 -0.09375q0.15625 0 0.34375 0.03125q0.203125 0.015625 0.40625 0.0625q0.21875 0.046875 0.375 0.109375q0.171875 0.046875 0.234375 0.109375q0.078125 0.0625 0.09375 0.109375q0.03125 0.046875 0.046875 0.140625q0.03125 0.078125 0.03125 0.234375q0 0.15625 0 0.421875zm6.1171875 3.859375q0 1.328125 -0.171875 2.625q-0.15625 1.296875 -0.484375 2.5625q-0.328125 1.265625 -0.796875 2.484375q-0.46875 1.234375 -1.109375 2.421875q-0.03125 0.0625 -0.109375 0.109375q-0.0625 0.046875 -0.171875 0.078125q-0.109375 0.03125 -0.265625 0.046875q-0.15625 0.015625 -0.359375 0.015625q-0.3125 0 -0.484375 -0.03125q-0.171875 -0.03125 -0.25 -0.09375q-0.0625 -0.0625 -0.0625 -0.171875q0 -0.09375 0.0625 -0.234375q1.078125 -2.359375 1.625 -4.84375q0.5625 -2.484375 0.5625 -5.0q0 -2.515625 -0.5625 -4.984375q-0.546875 -2.484375 -1.640625 -4.84375q-0.046875 -0.09375 -0.046875 -0.1875q0.015625 -0.09375 0.109375 -0.15625q0.09375 -0.0625 0.25 -0.09375q0.171875 -0.03125 0.4375 -0.03125q0.25 0 0.40625 0.015625q0.171875 0.015625 0.265625 0.046875q0.109375 0.03125 0.15625 0.078125q0.046875 0.03125 0.0625 0.078125q1.21875 2.40625 1.890625 4.9375q0.6875 2.53125 0.6875 5.171875z" fill-rule="nonzero"></path><path fill="#b7cce4" d="m514.9943 453.0941l156.33185 0l0 76.53439l-156.33185 0z" fill-rule="nonzero"></path><path stroke="#000000" stroke-width="1.0" stroke-linejoin="round" stroke-linecap="butt" d="m514.9943 453.0941l156.33185 0l0 76.53439l-156.33185 0z" fill-rule="nonzero"></path><path fill="#000000" d="m584.0353 474.5247q0 1.390625 -0.40625 2.484375q-0.40625 1.078125 -1.15625 1.828125q-0.75 0.75 -1.828125 1.140625q-1.078125 0.375 -2.453125 0.375q-1.25 0 -2.28125 -0.359375q-1.03125 -0.359375 -1.765625 -1.0625q-0.734375 -0.71875 -1.140625 -1.78125q-0.390625 -1.078125 -0.390625 -2.46875l0 -9.40625q0 -0.09375 0.046875 -0.15625q0.046875 -0.078125 0.15625 -0.109375q0.125 -0.046875 0.3125 -0.078125q0.1875 -0.03125 0.484375 -0.03125q0.28125 0 0.484375 0.03125q0.203125 0.03125 0.3125 0.078125q0.109375 0.03125 0.15625 0.109375q0.046875 0.0625 0.046875 0.15625l0 9.15625q0 1.0625 0.25 1.84375q0.265625 0.78125 0.75 1.3125q0.484375 0.515625 1.171875 0.78125q0.6875 0.265625 1.546875 0.265625q0.875 0 1.5625 -0.25q0.6875 -0.265625 1.15625 -0.78125q0.46875 -0.515625 0.71875 -1.28125q0.265625 -0.765625 0.265625 -1.78125l0 -9.265625q0 -0.09375 0.046875 -0.15625q0.046875 -0.078125 0.15625 -0.109375q0.125 -0.046875 0.3125 -0.078125q0.1875 -0.03125 0.484375 -0.03125q0.28125 0 0.46875 0.03125q0.203125 0.03125 0.3125 0.078125q0.109375 0.03125 0.15625 0.109375q0.0625 0.0625 0.0625 0.15625l0 9.25zm10.3984375 2.4375q0 0.8125 -0.3125 1.453125q-0.296875 0.625 -0.84375 1.0625q-0.546875 0.4375 -1.3125 0.65625q-0.765625 0.21875 -1.671875 0.21875q-0.5625 0 -1.078125 -0.09375q-0.5 -0.078125 -0.90625 -0.203125q-0.40625 -0.140625 -0.6875 -0.28125q-0.28125 -0.15625 -0.421875 -0.265625q-0.125 -0.125 -0.1875 -0.328125q-0.046875 -0.21875 -0.046875 -0.578125q0 -0.234375 0.015625 -0.375q0.03125 -0.15625 0.0625 -0.25q0.03125 -0.09375 0.09375 -0.125q0.078125 -0.046875 0.15625 -0.046875q0.125 0 0.375 0.15625q0.25 0.15625 0.625 0.34375q0.375 0.1875 0.875 0.34375q0.5 0.15625 1.15625 0.15625q0.5 0 0.890625 -0.09375q0.40625 -0.109375 0.6875 -0.3125q0.296875 -0.21875 0.453125 -0.53125q0.15625 -0.3125 0.15625 -0.75q0 -0.4375 -0.234375 -0.734375q-0.21875 -0.3125 -0.59375 -0.546875q-0.375 -0.234375 -0.84375 -0.421875q-0.46875 -0.1875 -0.96875 -0.375q-0.5 -0.203125 -0.96875 -0.453125q-0.46875 -0.25 -0.84375 -0.609375q-0.375 -0.375 -0.609375 -0.875q-0.234375 -0.5 -0.234375 -1.203125q0 -0.625 0.234375 -1.1875q0.25 -0.578125 0.734375 -1.0q0.484375 -0.4375 1.203125 -0.6875q0.71875 -0.265625 1.671875 -0.265625q0.421875 0 0.84375 0.078125q0.421875 0.0625 0.765625 0.171875q0.34375 0.109375 0.578125 0.234375q0.25 0.125 0.359375 0.21875q0.125 0.09375 0.171875 0.171875q0.046875 0.0625 0.0625 0.15625q0.015625 0.078125 0.03125 0.203125q0.015625 0.125 0.015625 0.3125q0 0.203125 -0.015625 0.359375q-0.015625 0.140625 -0.0625 0.234375q-0.03125 0.09375 -0.09375 0.140625q-0.0625 0.03125 -0.125 0.03125q-0.109375 0 -0.3125 -0.125q-0.203125 -0.125 -0.515625 -0.265625q-0.3125 -0.15625 -0.75 -0.28125q-0.421875 -0.140625 -0.96875 -0.140625q-0.5 0 -0.875 0.125q-0.375 0.109375 -0.609375 0.3125q-0.234375 0.203125 -0.359375 0.484375q-0.125 0.28125 -0.125 0.609375q0 0.453125 0.234375 0.765625q0.234375 0.3125 0.609375 0.546875q0.375 0.234375 0.84375 0.421875q0.484375 0.1875 0.984375 0.390625q0.5 0.1875 0.984375 0.4375q0.484375 0.25 0.859375 0.609375q0.375 0.34375 0.609375 0.84375q0.234375 0.484375 0.234375 1.15625zm11.761719 -2.859375q0 0.46875 -0.234375 0.65625q-0.21875 0.1875 -0.515625 0.1875l-6.921875 0q0 0.890625 0.171875 1.59375q0.1875 0.703125 0.59375 1.203125q0.40625 0.5 1.0625 0.78125q0.65625 0.265625 1.609375 0.265625q0.75 0 1.328125 -0.125q0.59375 -0.125 1.015625 -0.28125q0.4375 -0.15625 0.703125 -0.265625q0.28125 -0.125 0.421875 -0.125q0.078125 0 0.140625 0.046875q0.078125 0.03125 0.109375 0.109375q0.03125 0.078125 0.046875 0.234375q0.015625 0.140625 0.015625 0.359375q0 0.140625 -0.015625 0.265625q0 0.109375 -0.015625 0.203125q-0.015625 0.078125 -0.0625 0.15625q-0.046875 0.0625 -0.109375 0.125q-0.0625 0.0625 -0.375 0.21875q-0.3125 0.140625 -0.828125 0.28125q-0.5 0.140625 -1.171875 0.25q-0.65625 0.109375 -1.40625 0.109375q-1.296875 0 -2.28125 -0.359375q-0.96875 -0.359375 -1.640625 -1.078125q-0.671875 -0.71875 -1.015625 -1.796875q-0.328125 -1.078125 -0.328125 -2.5q0 -1.359375 0.34375 -2.4375q0.359375 -1.09375 1.015625 -1.84375q0.671875 -0.765625 1.609375 -1.171875q0.9375 -0.40625 2.09375 -0.40625q1.234375 0 2.109375 0.40625q0.875 0.390625 1.4375 1.078125q0.5625 0.671875 0.828125 1.578125q0.265625 0.90625 0.265625 1.9375l0 0.34375zm-1.953125 -0.5625q0.046875 -1.53125 -0.671875 -2.390625q-0.703125 -0.875 -2.09375 -0.875q-0.71875 0 -1.265625 0.28125q-0.53125 0.265625 -0.90625 0.71875q-0.359375 0.4375 -0.5625 1.03125q-0.1875 0.578125 -0.21875 1.234375l5.71875 0zm11.050781 -3.5625q0 0.265625 -0.015625 0.4375q0 0.171875 -0.046875 0.28125q-0.03125 0.09375 -0.078125 0.15625q-0.046875 0.046875 -0.140625 0.046875q-0.09375 0 -0.234375 -0.046875q-0.140625 -0.0625 -0.3125 -0.109375q-0.15625 -0.0625 -0.375 -0.109375q-0.203125 -0.046875 -0.453125 -0.046875q-0.296875 0 -0.578125 0.125q-0.28125 0.109375 -0.59375 0.390625q-0.3125 0.265625 -0.65625 0.71875q-0.328125 0.4375 -0.734375 1.078125l0 6.9375q0 0.09375 -0.046875 0.15625q-0.046875 0.0625 -0.15625 0.125q-0.109375 0.046875 -0.296875 0.0625q-0.1875 0.03125 -0.484375 0.03125q-0.28125 0 -0.46875 -0.03125q-0.1875 -0.015625 -0.296875 -0.0625q-0.109375 -0.0625 -0.15625 -0.125q-0.03125 -0.0625 -0.03125 -0.15625l0 -10.546875q0 -0.09375 0.03125 -0.15625q0.03125 -0.0625 0.140625 -0.109375q0.109375 -0.0625 0.265625 -0.078125q0.171875 -0.015625 0.4375 -0.015625q0.265625 0 0.421875 0.015625q0.171875 0.015625 0.265625 0.078125q0.09375 0.046875 0.140625 0.109375q0.046875 0.0625 0.046875 0.15625l0 1.53125q0.421875 -0.625 0.796875 -1.015625q0.390625 -0.40625 0.734375 -0.625q0.34375 -0.234375 0.671875 -0.328125q0.328125 -0.09375 0.671875 -0.09375q0.15625 0 0.34375 0.03125q0.203125 0.015625 0.40625 0.0625q0.21875 0.046875 0.375 0.109375q0.171875 0.046875 0.234375 0.109375q0.078125 0.0625 0.09375 0.109375q0.03125 0.046875 0.046875 0.140625q0.03125 0.078125 0.03125 0.234375q0 0.15625 0 0.421875z" fill-rule="nonzero"></path><path fill="#b7cce4" d="m306.84714 453.0941l156.33185 0l0 76.53439l-156.33185 0z" fill-rule="nonzero"></path><path stroke="#000000" stroke-width="1.0" stroke-linejoin="round" stroke-linecap="butt" d="m306.84714 453.0941l156.33185 0l0 76.53439l-156.33185 0z" fill-rule="nonzero"></path><path fill="#000000" d="m371.23767 465.8372q0 0.21875 -0.03125 0.390625q-0.015625 0.15625 -0.078125 0.265625q-0.046875 0.09375 -0.125 0.140625q-0.078125 0.046875 -0.15625 0.046875l-5.5625 0l0 5.15625l5.25 0q0.078125 0 0.15625 0.046875q0.078125 0.03125 0.140625 0.125q0.0625 0.09375 0.078125 0.25q0.03125 0.15625 0.03125 0.40625q0 0.21875 -0.03125 0.390625q-0.015625 0.15625 -0.078125 0.25q-0.0625 0.09375 -0.140625 0.15625q-0.078125 0.046875 -0.15625 0.046875l-5.25 0l0 6.3125q0 0.09375 -0.046875 0.171875q-0.046875 0.0625 -0.171875 0.109375q-0.109375 0.046875 -0.296875 0.078125q-0.1875 0.03125 -0.484375 0.03125q-0.28125 0 -0.484375 -0.03125q-0.203125 -0.03125 -0.328125 -0.078125q-0.109375 -0.046875 -0.15625 -0.109375q-0.046875 -0.078125 -0.046875 -0.171875l0 -14.03125q0 -0.453125 0.234375 -0.640625q0.25 -0.1875 0.515625 -0.1875l6.828125 0q0.078125 0 0.15625 0.046875q0.078125 0.046875 0.125 0.15625q0.0625 0.109375 0.078125 0.28125q0.03125 0.171875 0.03125 0.390625zm11.839844 8.265625q0 0.46875 -0.234375 0.65625q-0.21875 0.1875 -0.515625 0.1875l-6.921875 0q0 0.890625 0.171875 1.59375q0.1875 0.703125 0.59375 1.203125q0.40625 0.5 1.0625 0.78125q0.65625 0.265625 1.609375 0.265625q0.75 0 1.328125 -0.125q0.59375 -0.125 1.015625 -0.28125q0.4375 -0.15625 0.703125 -0.265625q0.28125 -0.125 0.421875 -0.125q0.078125 0 0.140625 0.046875q0.078125 0.03125 0.109375 0.109375q0.03125 0.078125 0.046875 0.234375q0.015625 0.140625 0.015625 0.359375q0 0.140625 -0.015625 0.265625q0 0.109375 -0.015625 0.203125q-0.015625 0.078125 -0.0625 0.15625q-0.046875 0.0625 -0.109375 0.125q-0.0625 0.0625 -0.375 0.21875q-0.3125 0.140625 -0.828125 0.28125q-0.5 0.140625 -1.171875 0.25q-0.65625 0.109375 -1.40625 0.109375q-1.296875 0 -2.28125 -0.359375q-0.96875 -0.359375 -1.640625 -1.078125q-0.671875 -0.71875 -1.015625 -1.796875q-0.328125 -1.078125 -0.328125 -2.5q0 -1.359375 0.34375 -2.4375q0.359375 -1.09375 1.015625 -1.84375q0.671875 -0.765625 1.609375 -1.171875q0.9375 -0.40625 2.09375 -0.40625q1.234375 0 2.109375 0.40625q0.875 0.390625 1.4375 1.078125q0.5625 0.671875 0.828125 1.578125q0.265625 0.90625 0.265625 1.9375l0 0.34375zm-1.953125 -0.5625q0.046875 -1.53125 -0.671875 -2.390625q-0.703125 -0.875 -2.09375 -0.875q-0.71875 0 -1.265625 0.28125q-0.53125 0.265625 -0.90625 0.71875q-0.359375 0.4375 -0.5625 1.03125q-0.1875 0.578125 -0.21875 1.234375l5.71875 0zm13.894531 0.5625q0 0.46875 -0.234375 0.65625q-0.21875 0.1875 -0.515625 0.1875l-6.921875 0q0 0.890625 0.171875 1.59375q0.1875 0.703125 0.59375 1.203125q0.40625 0.5 1.0625 0.78125q0.65625 0.265625 1.609375 0.265625q0.75 0 1.328125 -0.125q0.59375 -0.125 1.015625 -0.28125q0.4375 -0.15625 0.703125 -0.265625q0.28125 -0.125 0.421875 -0.125q0.078125 0 0.140625 0.046875q0.078125 0.03125 0.109375 0.109375q0.03125 0.078125 0.046875 0.234375q0.015625 0.140625 0.015625 0.359375q0 0.140625 -0.015625 0.265625q0 0.109375 -0.015625 0.203125q-0.015625 0.078125 -0.0625 0.15625q-0.046875 0.0625 -0.109375 0.125q-0.0625 0.0625 -0.375 0.21875q-0.3125 0.140625 -0.828125 0.28125q-0.5 0.140625 -1.171875 0.25q-0.65625 0.109375 -1.40625 0.109375q-1.296875 0 -2.28125 -0.359375q-0.96875 -0.359375 -1.640625 -1.078125q-0.671875 -0.71875 -1.015625 -1.796875q-0.328125 -1.078125 -0.328125 -2.5q0 -1.359375 0.34375 -2.4375q0.359375 -1.09375 1.015625 -1.84375q0.671875 -0.765625 1.609375 -1.171875q0.9375 -0.40625 2.09375 -0.40625q1.234375 0 2.109375 0.40625q0.875 0.390625 1.4375 1.078125q0.5625 0.671875 0.828125 1.578125q0.265625 0.90625 0.265625 1.9375l0 0.34375zm-1.953125 -0.5625q0.046875 -1.53125 -0.671875 -2.390625q-0.703125 -0.875 -2.09375 -0.875q-0.71875 0 -1.265625 0.28125q-0.53125 0.265625 -0.90625 0.71875q-0.359375 0.4375 -0.5625 1.03125q-0.1875 0.578125 -0.21875 1.234375l5.71875 0zm13.925781 6.296875q0 0.09375 -0.046875 0.171875q-0.03125 0.0625 -0.140625 0.109375q-0.09375 0.046875 -0.265625 0.0625q-0.15625 0.03125 -0.390625 0.03125q-0.25 0 -0.421875 -0.03125q-0.15625 -0.015625 -0.265625 -0.0625q-0.09375 -0.046875 -0.140625 -0.109375q-0.046875 -0.078125 -0.046875 -0.171875l0 -1.390625q-0.828125 0.90625 -1.734375 1.40625q-0.890625 0.5 -1.953125 0.5q-1.171875 0 -2.0 -0.453125q-0.8125 -0.453125 -1.328125 -1.21875q-0.5 -0.765625 -0.734375 -1.796875q-0.234375 -1.046875 -0.234375 -2.1875q0 -1.359375 0.296875 -2.453125q0.296875 -1.09375 0.859375 -1.859375q0.578125 -0.78125 1.421875 -1.203125q0.859375 -0.421875 1.96875 -0.421875q0.921875 0 1.6875 0.40625q0.78125 0.40625 1.53125 1.1875l0 -6.125q0 -0.078125 0.03125 -0.15625q0.046875 -0.078125 0.15625 -0.109375q0.125 -0.046875 0.296875 -0.078125q0.1875 -0.03125 0.46875 -0.03125q0.296875 0 0.484375 0.03125q0.1875 0.03125 0.28125 0.078125q0.109375 0.03125 0.15625 0.109375q0.0625 0.078125 0.0625 0.15625l0 15.609375zm-1.9375 -7.421875q-0.796875 -0.96875 -1.53125 -1.46875q-0.71875 -0.515625 -1.515625 -0.515625q-0.75 0 -1.265625 0.359375q-0.515625 0.34375 -0.84375 0.921875q-0.3125 0.5625 -0.46875 1.296875q-0.140625 0.71875 -0.140625 1.46875q0 0.796875 0.125 1.5625q0.125 0.765625 0.421875 1.359375q0.3125 0.59375 0.8125 0.953125q0.515625 0.34375 1.265625 0.34375q0.390625 0 0.75 -0.09375q0.359375 -0.109375 0.734375 -0.359375q0.375 -0.25 0.78125 -0.640625q0.40625 -0.390625 0.875 -0.96875l0 -4.21875z" fill-rule="nonzero"></path><path fill="#b7cce4" d="m514.9942 273.26123l156.33185 0l0 76.53436l-156.33185 0z" fill-rule="nonzero"></path><path stroke="#000000" stroke-width="1.0" stroke-linejoin="round" stroke-linecap="butt" d="m514.9942 273.26123l156.33185 0l0 76.53436l-156.33185 0z" fill-rule="nonzero"></path><path fill="#000000" d="m574.6426 299.58246q0.09375 0.265625 0.09375 0.421875q0.015625 0.15625 -0.078125 0.25q-0.09375 0.078125 -0.3125 0.09375q-0.21875 0.03125 -0.578125 0.03125q-0.375 0 -0.59375 -0.03125q-0.203125 -0.015625 -0.328125 -0.046875q-0.109375 -0.046875 -0.15625 -0.109375q-0.046875 -0.078125 -0.09375 -0.1875l-1.3125 -3.6875l-6.296875 0l-1.25 3.640625q-0.03125 0.109375 -0.09375 0.1875q-0.046875 0.078125 -0.171875 0.140625q-0.109375 0.046875 -0.3125 0.0625q-0.203125 0.03125 -0.53125 0.03125q-0.34375 0 -0.5625 -0.03125q-0.203125 -0.03125 -0.296875 -0.109375q-0.09375 -0.09375 -0.09375 -0.25q0.015625 -0.15625 0.109375 -0.421875l5.09375 -14.078125q0.046875 -0.125 0.109375 -0.203125q0.078125 -0.09375 0.21875 -0.140625q0.15625 -0.046875 0.375 -0.0625q0.234375 -0.015625 0.59375 -0.015625q0.375 0 0.609375 0.015625q0.25 0.015625 0.40625 0.0625q0.15625 0.046875 0.234375 0.140625q0.078125 0.078125 0.125 0.21875l5.09375 14.078125zm-6.53125 -12.4375l-0.015625 0l-2.609375 7.5625l5.28125 0l-2.65625 -7.5625zm17.871094 12.859375q0 0.09375 -0.046875 0.171875q-0.03125 0.0625 -0.140625 0.109375q-0.09375 0.046875 -0.265625 0.0625q-0.15625 0.03125 -0.390625 0.03125q-0.25 0 -0.421875 -0.03125q-0.15625 -0.015625 -0.265625 -0.0625q-0.09375 -0.046875 -0.140625 -0.109375q-0.046875 -0.078125 -0.046875 -0.171875l0 -1.390625q-0.828125 0.90625 -1.734375 1.40625q-0.890625 0.5 -1.953125 0.5q-1.171875 0 -2.0 -0.453125q-0.8125 -0.453125 -1.328125 -1.21875q-0.5 -0.765625 -0.734375 -1.796875q-0.234375 -1.046875 -0.234375 -2.1875q0 -1.359375 0.296875 -2.453125q0.296875 -1.09375 0.859375 -1.859375q0.578125 -0.78125 1.421875 -1.203125q0.859375 -0.421875 1.96875 -0.421875q0.921875 0 1.6875 0.40625q0.78125 0.40625 1.53125 1.1875l0 -6.125q0 -0.078125 0.03125 -0.15625q0.046875 -0.078125 0.15625 -0.109375q0.125 -0.046875 0.296875 -0.078125q0.1875 -0.03125 0.46875 -0.03125q0.296875 0 0.484375 0.03125q0.1875 0.03125 0.28125 0.078125q0.109375 0.03125 0.15625 0.109375q0.0625 0.078125 0.0625 0.15625l0 15.609375zm-1.9375 -7.421875q-0.796875 -0.96875 -1.53125 -1.46875q-0.71875 -0.515625 -1.515625 -0.515625q-0.75 0 -1.265625 0.359375q-0.515625 0.34375 -0.84375 0.921875q-0.3125 0.5625 -0.46875 1.296875q-0.140625 0.71875 -0.140625 1.46875q0 0.796875 0.125 1.5625q0.125 0.765625 0.421875 1.359375q0.3125 0.59375 0.8125 0.953125q0.515625 0.34375 1.265625 0.34375q0.390625 0 0.75 -0.09375q0.359375 -0.109375 0.734375 -0.359375q0.375 -0.25 0.78125 -0.640625q0.40625 -0.390625 0.875 -0.96875l0 -4.21875zm21.15625 7.421875q0 0.09375 -0.046875 0.15625q-0.046875 0.0625 -0.15625 0.125q-0.09375 0.046875 -0.28125 0.0625q-0.1875 0.03125 -0.46875 0.03125q-0.296875 0 -0.484375 -0.03125q-0.1875 -0.015625 -0.296875 -0.0625q-0.109375 -0.0625 -0.15625 -0.125q-0.046875 -0.0625 -0.046875 -0.15625l0 -6.40625q0 -0.671875 -0.125 -1.21875q-0.109375 -0.546875 -0.375 -0.9375q-0.25 -0.40625 -0.65625 -0.609375q-0.390625 -0.21875 -0.9375 -0.21875q-0.671875 0 -1.34375 0.515625q-0.671875 0.515625 -1.484375 1.5l0 7.375q0 0.09375 -0.046875 0.15625q-0.046875 0.0625 -0.15625 0.125q-0.109375 0.046875 -0.296875 0.0625q-0.1875 0.03125 -0.46875 0.03125q-0.265625 0 -0.46875 -0.03125q-0.1875 -0.015625 -0.296875 -0.0625q-0.109375 -0.0625 -0.15625 -0.125q-0.03125 -0.0625 -0.03125 -0.15625l0 -6.40625q0 -0.671875 -0.140625 -1.21875q-0.125 -0.546875 -0.390625 -0.9375q-0.25 -0.40625 -0.640625 -0.609375q-0.390625 -0.21875 -0.9375 -0.21875q-0.65625 0 -1.34375 0.515625q-0.671875 0.515625 -1.46875 1.5l0 7.375q0 0.09375 -0.046875 0.15625q-0.046875 0.0625 -0.15625 0.125q-0.109375 0.046875 -0.296875 0.0625q-0.1875 0.03125 -0.484375 0.03125q-0.28125 0 -0.46875 -0.03125q-0.1875 -0.015625 -0.296875 -0.0625q-0.109375 -0.0625 -0.15625 -0.125q-0.03125 -0.0625 -0.03125 -0.15625l0 -10.546875q0 -0.09375 0.03125 -0.15625q0.03125 -0.0625 0.140625 -0.109375q0.109375 -0.0625 0.265625 -0.078125q0.171875 -0.015625 0.4375 -0.015625q0.265625 0 0.421875 0.015625q0.171875 0.015625 0.265625 0.078125q0.09375 0.046875 0.140625 0.109375q0.046875 0.0625 0.046875 0.15625l0 1.390625q0.890625 -0.984375 1.71875 -1.453125q0.84375 -0.46875 1.703125 -0.46875q0.65625 0 1.171875 0.15625q0.515625 0.15625 0.90625 0.4375q0.40625 0.265625 0.6875 0.65625q0.28125 0.375 0.46875 0.84375q0.53125 -0.578125 1.0 -0.96875q0.484375 -0.40625 0.921875 -0.640625q0.4375 -0.25 0.84375 -0.359375q0.421875 -0.125 0.84375 -0.125q1.03125 0 1.71875 0.359375q0.6875 0.359375 1.109375 0.96875q0.4375 0.59375 0.609375 1.390625q0.1875 0.796875 0.1875 1.6875l0 6.671875zm5.46875 0q0 0.09375 -0.046875 0.15625q-0.046875 0.0625 -0.15625 0.125q-0.109375 0.046875 -0.296875 0.0625q-0.1875 0.03125 -0.484375 0.03125q-0.28125 0 -0.46875 -0.03125q-0.1875 -0.015625 -0.296875 -0.0625q-0.109375 -0.0625 -0.15625 -0.125q-0.03125 -0.0625 -0.03125 -0.15625l0 -10.546875q0 -0.078125 0.03125 -0.140625q0.046875 -0.078125 0.15625 -0.125q0.109375 -0.046875 0.296875 -0.0625q0.1875 -0.03125 0.46875 -0.03125q0.296875 0 0.484375 0.03125q0.1875 0.015625 0.296875 0.0625q0.109375 0.046875 0.15625 0.125q0.046875 0.0625 0.046875 0.140625l0 10.546875zm0.21875 -14.109375q0 0.6875 -0.265625 0.9375q-0.25 0.234375 -0.9375 0.234375q-0.6875 0 -0.9375 -0.234375q-0.25 -0.25 -0.25 -0.90625q0 -0.6875 0.25 -0.921875q0.265625 -0.25 0.953125 -0.25q0.6875 0 0.9375 0.234375q0.25 0.234375 0.25 0.90625zm12.4296875 14.109375q0 0.09375 -0.046875 0.15625q-0.046875 0.0625 -0.15625 0.125q-0.09375 0.046875 -0.28125 0.0625q-0.1875 0.03125 -0.46875 0.03125q-0.296875 0 -0.484375 -0.03125q-0.1875 -0.015625 -0.296875 -0.0625q-0.109375 -0.0625 -0.15625 -0.125q-0.046875 -0.0625 -0.046875 -0.15625l0 -6.171875q0 -0.90625 -0.140625 -1.453125q-0.140625 -0.546875 -0.40625 -0.9375q-0.265625 -0.40625 -0.703125 -0.609375q-0.421875 -0.21875 -0.984375 -0.21875q-0.71875 0 -1.453125 0.515625q-0.71875 0.515625 -1.515625 1.5l0 7.375q0 0.09375 -0.046875 0.15625q-0.046875 0.0625 -0.15625 0.125q-0.109375 0.046875 -0.296875 0.0625q-0.1875 0.03125 -0.484375 0.03125q-0.28125 0 -0.46875 -0.03125q-0.1875 -0.015625 -0.296875 -0.0625q-0.109375 -0.0625 -0.15625 -0.125q-0.03125 -0.0625 -0.03125 -0.15625l0 -10.546875q0 -0.09375 0.03125 -0.15625q0.03125 -0.0625 0.140625 -0.109375q0.109375 -0.0625 0.265625 -0.078125q0.171875 -0.015625 0.4375 -0.015625q0.265625 0 0.421875 0.015625q0.171875 0.015625 0.265625 0.078125q0.09375 0.046875 0.140625 0.109375q0.046875 0.0625 0.046875 0.15625l0 1.390625q0.890625 -0.984375 1.765625 -1.453125q0.890625 -0.46875 1.796875 -0.46875q1.046875 0 1.765625 0.359375q0.71875 0.359375 1.15625 0.96875q0.453125 0.59375 0.640625 1.390625q0.203125 0.796875 0.203125 1.921875l0 6.4375z" fill-rule="nonzero"></path><path fill="#000000" d="m543.3631 323.69183q0 1.390625 -0.40625 2.484375q-0.40625 1.078125 -1.15625 1.828125q-0.75 0.75 -1.828125 1.140625q-1.078125 0.375 -2.453125 0.375q-1.25 0 -2.28125 -0.359375q-1.03125 -0.359375 -1.765625 -1.0625q-0.734375 -0.71875 -1.140625 -1.78125q-0.390625 -1.078125 -0.390625 -2.46875l0 -9.40625q0 -0.09375 0.046875 -0.15625q0.046875 -0.078125 0.15625 -0.109375q0.125 -0.046875 0.3125 -0.078125q0.1875 -0.03125 0.484375 -0.03125q0.28125 0 0.484375 0.03125q0.203125 0.03125 0.3125 0.078125q0.109375 0.03125 0.15625 0.109375q0.046875 0.0625 0.046875 0.15625l0 9.15625q0 1.0625 0.25 1.84375q0.265625 0.78125 0.75 1.3125q0.484375 0.515625 1.171875 0.78125q0.6875 0.265625 1.546875 0.265625q0.875 0 1.5625 -0.25q0.6875 -0.265625 1.15625 -0.78125q0.46875 -0.515625 0.71875 -1.28125q0.265625 -0.765625 0.265625 -1.78125l0 -9.265625q0 -0.09375 0.046875 -0.15625q0.046875 -0.078125 0.15625 -0.109375q0.125 -0.046875 0.3125 -0.078125q0.1875 -0.03125 0.484375 -0.03125q0.28125 0 0.46875 0.03125q0.203125 0.03125 0.3125 0.078125q0.109375 0.03125 0.15625 0.109375q0.0625 0.0625 0.0625 0.15625l0 9.25zm6.0078125 5.296875q0 0.09375 -0.046875 0.171875q-0.046875 0.0625 -0.171875 0.109375q-0.109375 0.046875 -0.3125 0.078125q-0.1875 0.03125 -0.46875 0.03125q-0.28125 0 -0.484375 -0.03125q-0.203125 -0.03125 -0.328125 -0.078125q-0.109375 -0.046875 -0.15625 -0.109375q-0.046875 -0.078125 -0.046875 -0.171875l0 -14.546875q0 -0.09375 0.046875 -0.15625q0.0625 -0.078125 0.1875 -0.109375q0.125 -0.046875 0.3125 -0.078125q0.1875 -0.03125 0.46875 -0.03125q0.28125 0 0.46875 0.03125q0.203125 0.03125 0.3125 0.078125q0.125 0.03125 0.171875 0.109375q0.046875 0.0625 0.046875 0.15625l0 14.546875z" fill-rule="nonzero"></path><path fill="#000000" d="m561.40607 316.51996q-0.875 1.859375 -1.3125 3.828125q-0.4375 1.953125 -0.4375 3.9375q0 2.0 0.4375 3.96875q0.453125 1.953125 1.296875 3.828125q0.046875 0.109375 0.046875 0.1875q0 0.078125 -0.0625 0.125q-0.0625 0.0625 -0.203125 0.078125q-0.125 0.03125 -0.359375 0.03125q-0.171875 0 -0.296875 -0.015625q-0.109375 0 -0.203125 -0.03125q-0.078125 -0.03125 -0.140625 -0.078125q-0.0625 -0.03125 -0.078125 -0.078125q-0.5 -0.9375 -0.890625 -1.90625q-0.375 -0.96875 -0.640625 -1.96875q-0.25 -1.015625 -0.390625 -2.03125q-0.125 -1.03125 -0.125 -2.078125q0 -1.046875 0.140625 -2.0625q0.140625 -1.03125 0.40625 -2.03125q0.265625 -1.0 0.640625 -1.96875q0.390625 -0.984375 0.859375 -1.9375q0.015625 -0.046875 0.046875 -0.0625q0.046875 -0.03125 0.125 -0.0625q0.078125 -0.03125 0.203125 -0.046875q0.125 -0.015625 0.328125 -0.015625q0.21875 0 0.34375 0.03125q0.140625 0.03125 0.203125 0.078125q0.078125 0.046875 0.078125 0.125q0.015625 0.0625 -0.015625 0.15625zm8.969482 1.46875q0 0.171875 -0.015625 0.3125q-0.015625 0.125 -0.0625 0.203125q-0.046875 0.078125 -0.109375 0.109375q-0.0625 0.03125 -0.125 0.03125l-4.40625 0l0 4.09375l4.15625 0q0.0625 0 0.125 0.03125q0.0625 0.03125 0.109375 0.109375q0.046875 0.0625 0.0625 0.1875q0.015625 0.125 0.015625 0.328125q0 0.171875 -0.015625 0.296875q-0.015625 0.125 -0.0625 0.203125q-0.046875 0.078125 -0.109375 0.125q-0.0625 0.046875 -0.125 0.046875l-4.15625 0l0 5.0q0 0.0625 -0.03125 0.125q-0.03125 0.046875 -0.125 0.09375q-0.09375 0.03125 -0.25 0.046875q-0.140625 0.03125 -0.390625 0.03125q-0.21875 0 -0.375 -0.03125q-0.15625 -0.015625 -0.25 -0.046875q-0.09375 -0.046875 -0.140625 -0.09375q-0.03125 -0.0625 -0.03125 -0.125l0 -11.125q0 -0.359375 0.1875 -0.5q0.1875 -0.140625 0.40625 -0.140625l5.40625 0q0.0625 0 0.125 0.03125q0.0625 0.03125 0.109375 0.125q0.046875 0.078125 0.0625 0.21875q0.015625 0.125 0.015625 0.3125zm6.9626465 3.28125q0 0.203125 -0.015625 0.34375q0 0.140625 -0.03125 0.21875q-0.03125 0.078125 -0.078125 0.125q-0.03125 0.03125 -0.109375 0.03125q-0.0625 0 -0.171875 -0.03125q-0.109375 -0.046875 -0.25 -0.09375q-0.125 -0.046875 -0.296875 -0.078125q-0.171875 -0.03125 -0.359375 -0.03125q-0.234375 0 -0.453125 0.09375q-0.21875 0.09375 -0.46875 0.3125q-0.25 0.203125 -0.515625 0.5625q-0.265625 0.34375 -0.59375 0.859375l0 5.484375q0 0.078125 -0.046875 0.125q-0.03125 0.046875 -0.125 0.09375q-0.078125 0.03125 -0.234375 0.046875q-0.140625 0.03125 -0.359375 0.03125q-0.234375 0 -0.390625 -0.03125q-0.140625 -0.015625 -0.234375 -0.046875q-0.078125 -0.046875 -0.109375 -0.09375q-0.03125 -0.046875 -0.03125 -0.125l0 -8.34375q0 -0.078125 0.015625 -0.125q0.03125 -0.0625 0.109375 -0.09375q0.09375 -0.046875 0.21875 -0.0625q0.140625 -0.015625 0.34375 -0.015625q0.203125 0 0.34375 0.015625q0.140625 0.015625 0.203125 0.0625q0.078125 0.03125 0.109375 0.09375q0.03125 0.046875 0.03125 0.125l0 1.21875q0.34375 -0.515625 0.640625 -0.828125q0.3125 -0.3125 0.578125 -0.484375q0.265625 -0.1875 0.53125 -0.25q0.265625 -0.078125 0.53125 -0.078125q0.125 0 0.28125 0.015625q0.15625 0.015625 0.3125 0.0625q0.171875 0.03125 0.296875 0.078125q0.140625 0.046875 0.1875 0.09375q0.0625 0.03125 0.078125 0.078125q0.03125 0.046875 0.046875 0.109375q0.015625 0.0625 0.015625 0.1875q0 0.125 0 0.34375zm8.754211 3.265625q0 0.359375 -0.1875 0.515625q-0.171875 0.15625 -0.40625 0.15625l-5.46875 0q0 0.6875 0.125 1.25q0.140625 0.546875 0.46875 0.953125q0.328125 0.390625 0.84375 0.609375q0.515625 0.21875 1.28125 0.21875q0.59375 0 1.046875 -0.09375q0.46875 -0.109375 0.796875 -0.21875q0.34375 -0.125 0.5625 -0.21875q0.21875 -0.109375 0.328125 -0.109375q0.0625 0 0.109375 0.03125q0.0625 0.03125 0.09375 0.109375q0.03125 0.0625 0.03125 0.1875q0.015625 0.109375 0.015625 0.265625q0 0.125 -0.015625 0.21875q0 0.078125 -0.015625 0.15625q-0.015625 0.0625 -0.046875 0.125q-0.03125 0.046875 -0.078125 0.109375q-0.046875 0.046875 -0.296875 0.171875q-0.25 0.109375 -0.65625 0.21875q-0.390625 0.109375 -0.921875 0.1875q-0.53125 0.09375 -1.125 0.09375q-1.015625 0 -1.796875 -0.28125q-0.78125 -0.296875 -1.3125 -0.859375q-0.515625 -0.5625 -0.796875 -1.40625q-0.265625 -0.859375 -0.265625 -2.0q0 -1.078125 0.28125 -1.921875q0.28125 -0.859375 0.796875 -1.453125q0.53125 -0.609375 1.265625 -0.921875q0.75 -0.328125 1.671875 -0.328125q0.984375 0 1.671875 0.3125q0.6875 0.3125 1.125 0.859375q0.453125 0.53125 0.65625 1.25q0.21875 0.71875 0.21875 1.53125l0 0.28125zm-1.546875 -0.453125q0.03125 -1.203125 -0.53125 -1.890625q-0.5625 -0.6875 -1.65625 -0.6875q-0.578125 0 -1.0 0.21875q-0.421875 0.203125 -0.71875 0.5625q-0.28125 0.34375 -0.4375 0.8125q-0.15625 0.46875 -0.171875 0.984375l4.515625 0zm10.829407 0.453125q0 0.359375 -0.1875 0.515625q-0.171875 0.15625 -0.40625 0.15625l-5.46875 0q0 0.6875 0.125 1.25q0.140625 0.546875 0.46875 0.953125q0.328125 0.390625 0.84375 0.609375q0.515625 0.21875 1.28125 0.21875q0.59375 0 1.046875 -0.09375q0.46875 -0.109375 0.796875 -0.21875q0.34375 -0.125 0.5625 -0.21875q0.21875 -0.109375 0.328125 -0.109375q0.0625 0 0.109375 0.03125q0.0625 0.03125 0.09375 0.109375q0.03125 0.0625 0.03125 0.1875q0.015625 0.109375 0.015625 0.265625q0 0.125 -0.015625 0.21875q0 0.078125 -0.015625 0.15625q-0.015625 0.0625 -0.046875 0.125q-0.03125 0.046875 -0.078125 0.109375q-0.046875 0.046875 -0.296875 0.171875q-0.25 0.109375 -0.65625 0.21875q-0.390625 0.109375 -0.921875 0.1875q-0.53125 0.09375 -1.125 0.09375q-1.015625 0 -1.796875 -0.28125q-0.78125 -0.296875 -1.3125 -0.859375q-0.515625 -0.5625 -0.796875 -1.40625q-0.265625 -0.859375 -0.265625 -2.0q0 -1.078125 0.28125 -1.921875q0.28125 -0.859375 0.796875 -1.453125q0.53125 -0.609375 1.265625 -0.921875q0.75 -0.328125 1.671875 -0.328125q0.984375 0 1.671875 0.3125q0.6875 0.3125 1.125 0.859375q0.453125 0.53125 0.65625 1.25q0.21875 0.71875 0.21875 1.53125l0 0.28125zm-1.546875 -0.453125q0.03125 -1.203125 -0.53125 -1.890625q-0.5625 -0.6875 -1.65625 -0.6875q-0.578125 0 -1.0 0.21875q-0.421875 0.203125 -0.71875 0.5625q-0.28125 0.34375 -0.4375 0.8125q-0.15625 0.46875 -0.171875 0.984375l4.515625 0zm16.095093 4.984375q0 0.078125 -0.046875 0.125q-0.03125 0.046875 -0.125 0.09375q-0.078125 0.03125 -0.234375 0.046875q-0.140625 0.03125 -0.359375 0.03125q-0.234375 0 -0.390625 -0.03125q-0.140625 -0.015625 -0.234375 -0.046875q-0.078125 -0.046875 -0.125 -0.09375q-0.03125 -0.046875 -0.03125 -0.125l0 -5.078125q0 -0.515625 -0.09375 -0.953125q-0.09375 -0.4375 -0.296875 -0.75q-0.203125 -0.328125 -0.515625 -0.484375q-0.3125 -0.171875 -0.75 -0.171875q-0.53125 0 -1.0625 0.40625q-0.53125 0.40625 -1.171875 1.203125l0 5.828125q0 0.078125 -0.046875 0.125q-0.03125 0.046875 -0.125 0.09375q-0.078125 0.03125 -0.234375 0.046875q-0.140625 0.03125 -0.359375 0.03125q-0.21875 0 -0.375 -0.03125q-0.140625 -0.015625 -0.234375 -0.046875q-0.09375 -0.046875 -0.125 -0.09375q-0.03125 -0.046875 -0.03125 -0.125l0 -5.078125q0 -0.515625 -0.109375 -0.953125q-0.09375 -0.4375 -0.296875 -0.75q-0.203125 -0.328125 -0.515625 -0.484375q-0.3125 -0.171875 -0.734375 -0.171875q-0.53125 0 -1.078125 0.40625q-0.53125 0.40625 -1.15625 1.203125l0 5.828125q0 0.078125 -0.046875 0.125q-0.03125 0.046875 -0.125 0.09375q-0.078125 0.03125 -0.234375 0.046875q-0.140625 0.03125 -0.359375 0.03125q-0.234375 0 -0.390625 -0.03125q-0.140625 -0.015625 -0.234375 -0.046875q-0.078125 -0.046875 -0.109375 -0.09375q-0.03125 -0.046875 -0.03125 -0.125l0 -8.34375q0 -0.078125 0.015625 -0.125q0.03125 -0.0625 0.109375 -0.09375q0.09375 -0.046875 0.21875 -0.0625q0.140625 -0.015625 0.34375 -0.015625q0.203125 0 0.34375 0.015625q0.140625 0.015625 0.203125 0.0625q0.078125 0.03125 0.109375 0.09375q0.03125 0.046875 0.03125 0.125l0 1.09375q0.703125 -0.78125 1.359375 -1.140625q0.671875 -0.375 1.359375 -0.375q0.515625 0 0.921875 0.125q0.421875 0.109375 0.734375 0.328125q0.3125 0.21875 0.53125 0.53125q0.234375 0.296875 0.375 0.671875q0.421875 -0.453125 0.796875 -0.765625q0.375 -0.328125 0.71875 -0.515625q0.359375 -0.203125 0.6875 -0.28125q0.328125 -0.09375 0.65625 -0.09375q0.8125 0 1.359375 0.28125q0.546875 0.28125 0.875 0.765625q0.34375 0.46875 0.484375 1.109375q0.15625 0.625 0.15625 1.328125l0 5.28125zm8.793762 0.015625q0 0.109375 -0.078125 0.171875q-0.0625 0.046875 -0.203125 0.078125q-0.125 0.03125 -0.375 0.03125q-0.234375 0 -0.390625 -0.03125q-0.140625 -0.03125 -0.203125 -0.078125q-0.0625 -0.0625 -0.0625 -0.171875l0 -0.84375q-0.546875 0.59375 -1.21875 0.921875q-0.671875 0.3125 -1.421875 0.3125q-0.65625 0 -1.203125 -0.171875q-0.53125 -0.171875 -0.90625 -0.484375q-0.375 -0.328125 -0.578125 -0.796875q-0.203125 -0.484375 -0.203125 -1.078125q0 -0.71875 0.28125 -1.234375q0.28125 -0.515625 0.8125 -0.859375q0.546875 -0.34375 1.328125 -0.515625q0.78125 -0.171875 1.75 -0.171875l1.15625 0l0 -0.65625q0 -0.46875 -0.109375 -0.84375q-0.09375 -0.375 -0.328125 -0.609375q-0.21875 -0.25 -0.578125 -0.375q-0.359375 -0.125 -0.890625 -0.125q-0.5625 0 -1.015625 0.140625q-0.453125 0.125 -0.796875 0.296875q-0.328125 0.15625 -0.5625 0.296875q-0.234375 0.125 -0.34375 0.125q-0.0625 0 -0.125 -0.03125q-0.0625 -0.046875 -0.109375 -0.109375q-0.03125 -0.078125 -0.046875 -0.1875q-0.015625 -0.125 -0.015625 -0.265625q0 -0.234375 0.03125 -0.359375q0.03125 -0.140625 0.15625 -0.265625q0.125 -0.125 0.421875 -0.28125q0.3125 -0.15625 0.703125 -0.296875q0.40625 -0.140625 0.875 -0.21875q0.484375 -0.09375 0.96875 -0.09375q0.890625 0 1.515625 0.203125q0.640625 0.203125 1.03125 0.609375q0.390625 0.390625 0.5625 0.96875q0.171875 0.578125 0.171875 1.359375l0 5.640625zm-1.515625 -3.8125l-1.3125 0q-0.625 0 -1.09375 0.109375q-0.453125 0.09375 -0.765625 0.3125q-0.3125 0.203125 -0.453125 0.5q-0.140625 0.28125 -0.140625 0.671875q0 0.640625 0.40625 1.03125q0.421875 0.390625 1.15625 0.390625q0.609375 0 1.125 -0.3125q0.515625 -0.3125 1.078125 -0.9375l0 -1.765625zm9.045776 -4.0q0 0.203125 -0.015625 0.34375q0 0.140625 -0.03125 0.21875q-0.03125 0.078125 -0.078125 0.125q-0.03125 0.03125 -0.109375 0.03125q-0.0625 0 -0.171875 -0.03125q-0.109375 -0.046875 -0.25 -0.09375q-0.125 -0.046875 -0.296875 -0.078125q-0.171875 -0.03125 -0.359375 -0.03125q-0.234375 0 -0.453125 0.09375q-0.21875 0.09375 -0.46875 0.3125q-0.25 0.203125 -0.515625 0.5625q-0.265625 0.34375 -0.59375 0.859375l0 5.484375q0 0.078125 -0.046875 0.125q-0.03125 0.046875 -0.125 0.09375q-0.078125 0.03125 -0.234375 0.046875q-0.140625 0.03125 -0.359375 0.03125q-0.234375 0 -0.390625 -0.03125q-0.140625 -0.015625 -0.234375 -0.046875q-0.078125 -0.046875 -0.109375 -0.09375q-0.03125 -0.046875 -0.03125 -0.125l0 -8.34375q0 -0.078125 0.015625 -0.125q0.03125 -0.0625 0.109375 -0.09375q0.09375 -0.046875 0.21875 -0.0625q0.140625 -0.015625 0.34375 -0.015625q0.203125 0 0.34375 0.015625q0.140625 0.015625 0.203125 0.0625q0.078125 0.03125 0.109375 0.09375q0.03125 0.046875 0.03125 0.125l0 1.21875q0.34375 -0.515625 0.640625 -0.828125q0.3125 -0.3125 0.578125 -0.484375q0.265625 -0.1875 0.53125 -0.25q0.265625 -0.078125 0.53125 -0.078125q0.125 0 0.28125 0.015625q0.15625 0.015625 0.3125 0.0625q0.171875 0.03125 0.296875 0.078125q0.140625 0.046875 0.1875 0.09375q0.0625 0.03125 0.078125 0.078125q0.03125 0.046875 0.046875 0.109375q0.015625 0.0625 0.015625 0.1875q0 0.125 0 0.34375zm8.488586 7.796875q0 0.0625 -0.046875 0.125q-0.03125 0.046875 -0.125 0.09375q-0.078125 0.03125 -0.25 0.046875q-0.15625 0.03125 -0.390625 0.03125q-0.25 0 -0.421875 -0.015625q-0.15625 -0.015625 -0.265625 -0.046875q-0.109375 -0.03125 -0.1875 -0.09375q-0.0625 -0.0625 -0.125 -0.140625l-3.515625 -4.625l0 4.625q0 0.078125 -0.046875 0.125q-0.03125 0.046875 -0.125 0.09375q-0.078125 0.03125 -0.234375 0.046875q-0.140625 0.03125 -0.359375 0.03125q-0.234375 0 -0.390625 -0.03125q-0.140625 -0.015625 -0.234375 -0.046875q-0.078125 -0.046875 -0.109375 -0.09375q-0.03125 -0.046875 -0.03125 -0.125l0 -12.390625q0 -0.078125 0.03125 -0.125q0.03125 -0.0625 0.109375 -0.09375q0.09375 -0.046875 0.234375 -0.0625q0.15625 -0.015625 0.390625 -0.015625q0.21875 0 0.359375 0.015625q0.15625 0.015625 0.234375 0.0625q0.09375 0.03125 0.125 0.09375q0.046875 0.046875 0.046875 0.125l0 7.546875l3.15625 -3.46875q0.0625 -0.09375 0.140625 -0.15625q0.09375 -0.0625 0.203125 -0.09375q0.125 -0.046875 0.28125 -0.0625q0.15625 -0.015625 0.375 -0.015625q0.234375 0 0.390625 0.015625q0.15625 0.015625 0.25 0.046875q0.109375 0.03125 0.140625 0.09375q0.046875 0.046875 0.046875 0.125q0 0.109375 -0.0625 0.234375q-0.046875 0.109375 -0.1875 0.25l-3.03125 3.03125l3.390625 4.40625q0.125 0.15625 0.171875 0.25q0.0625 0.09375 0.0625 0.1875zm8.746582 -4.53125q0 0.359375 -0.1875 0.515625q-0.171875 0.15625 -0.40625 0.15625l-5.46875 0q0 0.6875 0.125 1.25q0.140625 0.546875 0.46875 0.953125q0.328125 0.390625 0.84375 0.609375q0.515625 0.21875 1.28125 0.21875q0.59375 0 1.046875 -0.09375q0.46875 -0.109375 0.796875 -0.21875q0.34375 -0.125 0.5625 -0.21875q0.21875 -0.109375 0.328125 -0.109375q0.0625 0 0.109375 0.03125q0.0625 0.03125 0.09375 0.109375q0.03125 0.0625 0.03125 0.1875q0.015625 0.109375 0.015625 0.265625q0 0.125 -0.015625 0.21875q0 0.078125 -0.015625 0.15625q-0.015625 0.0625 -0.046875 0.125q-0.03125 0.046875 -0.078125 0.109375q-0.046875 0.046875 -0.296875 0.171875q-0.25 0.109375 -0.65625 0.21875q-0.390625 0.109375 -0.921875 0.1875q-0.53125 0.09375 -1.125 0.09375q-1.015625 0 -1.796875 -0.28125q-0.78125 -0.296875 -1.3125 -0.859375q-0.515625 -0.5625 -0.796875 -1.40625q-0.265625 -0.859375 -0.265625 -2.0q0 -1.078125 0.28125 -1.921875q0.28125 -0.859375 0.796875 -1.453125q0.53125 -0.609375 1.265625 -0.921875q0.75 -0.328125 1.671875 -0.328125q0.984375 0 1.671875 0.3125q0.6875 0.3125 1.125 0.859375q0.453125 0.53125 0.65625 1.25q0.21875 0.71875 0.21875 1.53125l0 0.28125zm-1.546875 -0.453125q0.03125 -1.203125 -0.53125 -1.890625q-0.5625 -0.6875 -1.65625 -0.6875q-0.578125 0 -1.0 0.21875q-0.421875 0.203125 -0.71875 0.5625q-0.28125 0.34375 -0.4375 0.8125q-0.15625 0.46875 -0.171875 0.984375l4.515625 0zm8.579407 -2.8125q0 0.203125 -0.015625 0.34375q0 0.140625 -0.03125 0.21875q-0.03125 0.078125 -0.078125 0.125q-0.03125 0.03125 -0.109375 0.03125q-0.0625 0 -0.171875 -0.03125q-0.109375 -0.046875 -0.25 -0.09375q-0.125 -0.046875 -0.296875 -0.078125q-0.171875 -0.03125 -0.359375 -0.03125q-0.234375 0 -0.453125 0.09375q-0.21875 0.09375 -0.46875 0.3125q-0.25 0.203125 -0.515625 0.5625q-0.265625 0.34375 -0.59375 0.859375l0 5.484375q0 0.078125 -0.046875 0.125q-0.03125 0.046875 -0.125 0.09375q-0.078125 0.03125 -0.234375 0.046875q-0.140625 0.03125 -0.359375 0.03125q-0.234375 0 -0.390625 -0.03125q-0.140625 -0.015625 -0.234375 -0.046875q-0.078125 -0.046875 -0.109375 -0.09375q-0.03125 -0.046875 -0.03125 -0.125l0 -8.34375q0 -0.078125 0.015625 -0.125q0.03125 -0.0625 0.109375 -0.09375q0.09375 -0.046875 0.21875 -0.0625q0.140625 -0.015625 0.34375 -0.015625q0.203125 0 0.34375 0.015625q0.140625 0.015625 0.203125 0.0625q0.078125 0.03125 0.109375 0.09375q0.03125 0.046875 0.03125 0.125l0 1.21875q0.34375 -0.515625 0.640625 -0.828125q0.3125 -0.3125 0.578125 -0.484375q0.265625 -0.1875 0.53125 -0.25q0.265625 -0.078125 0.53125 -0.078125q0.125 0 0.28125 0.015625q0.15625 0.015625 0.3125 0.0625q0.171875 0.03125 0.296875 0.078125q0.140625 0.046875 0.1875 0.09375q0.0625 0.03125 0.078125 0.078125q0.03125 0.046875 0.046875 0.109375q0.015625 0.0625 0.015625 0.1875q0 0.125 0 0.34375zm4.7229614 3.046875q0 1.046875 -0.125 2.078125q-0.125 1.015625 -0.390625 2.03125q-0.265625 1.0 -0.640625 1.96875q-0.375 0.96875 -0.875 1.90625q-0.03125 0.046875 -0.09375 0.078125q-0.046875 0.046875 -0.140625 0.078125q-0.078125 0.03125 -0.203125 0.03125q-0.109375 0.015625 -0.28125 0.015625q-0.25 0 -0.390625 -0.03125q-0.125 -0.015625 -0.1875 -0.078125q-0.0625 -0.046875 -0.0625 -0.125q0.015625 -0.078125 0.0625 -0.1875q0.859375 -1.875 1.28125 -3.828125q0.4375 -1.96875 0.4375 -3.96875q0 -1.984375 -0.4375 -3.9375q-0.421875 -1.96875 -1.296875 -3.828125q-0.046875 -0.09375 -0.03125 -0.15625q0.015625 -0.078125 0.078125 -0.125q0.078125 -0.046875 0.203125 -0.078125q0.140625 -0.03125 0.34375 -0.03125q0.203125 0 0.328125 0.015625q0.140625 0.015625 0.21875 0.046875q0.078125 0.03125 0.109375 0.0625q0.03125 0.015625 0.0625 0.0625q0.953125 1.890625 1.484375 3.90625q0.546875 2.015625 0.546875 4.09375z" fill-rule="nonzero"></path><path fill="#000000" fill-opacity="0.0" d="m489.64844 96.02047l0 20.125984" fill-rule="nonzero"></path><path stroke="#000000" stroke-width="2.6666666666666665" stroke-linejoin="round" stroke-linecap="butt" d="m489.64847 96.02048l0 10.987076" fill-rule="evenodd"></path><path fill="#000000" stroke="#000000" stroke-width="2.6666666666666665" stroke-linecap="butt" d="m489.64847 107.00756l-2.9989014 -2.998886l2.9989014 8.23938l2.9988708 -8.23938z" fill-rule="evenodd"></path><path fill="#b7cce4" d="m342.66373 613.6393l0 0c0 5.9646606 19.341309 10.799988 43.200012 10.799988c23.858704 0 43.200012 -4.835327 43.200012 -10.799988l0 64.79999c0 5.9646606 -19.341309 10.799988 -43.200012 10.799988c-23.858704 0 -43.200012 -4.835327 -43.200012 -10.799988z" fill-rule="nonzero"></path><path fill="#d3e0ee" d="m342.66373 613.6393l0 0c0 -5.9646606 19.341309 -10.799988 43.200012 -10.799988c23.858704 0 43.200012 4.835327 43.200012 10.799988l0 0c0 5.9646606 -19.341309 10.799988 -43.200012 10.799988c-23.858704 0 -43.200012 -4.835327 -43.200012 -10.799988z" fill-rule="nonzero"></path><path fill="#000000" fill-opacity="0.0" d="m429.06375 613.6393l0 0c0 5.9646606 -19.341309 10.799988 -43.200012 10.799988c-23.858704 0 -43.200012 -4.835327 -43.200012 -10.799988l0 0c0 -5.9646606 19.341309 -10.799988 43.200012 -10.799988c23.858704 0 43.200012 4.835327 43.200012 10.799988l0 64.79999c0 5.9646606 -19.341309 10.799988 -43.200012 10.799988c-23.858704 0 -43.200012 -4.835327 -43.200012 -10.799988l0 -64.79999" fill-rule="nonzero"></path><path stroke="#000000" stroke-width="1.0" stroke-linejoin="round" stroke-linecap="butt" d="m429.06375 613.6393l0 0c0 5.9646606 -19.341309 10.799988 -43.200012 10.799988c-23.858704 0 -43.200012 -4.835327 -43.200012 -10.799988l0 0c0 -5.9646606 19.341309 -10.799988 43.200012 -10.799988c23.858704 0 43.200012 4.835327 43.200012 10.799988l0 64.79999c0 5.9646606 -19.341309 10.799988 -43.200012 10.799988c-23.858704 0 -43.200012 -4.835327 -43.200012 -10.799988l0 -64.79999" fill-rule="nonzero"></path><path fill="#000000" d="m385.62546 643.6668q0 1.96875 -0.5 3.453125q-0.5 1.46875 -1.46875 2.4375q-0.96875 0.953125 -2.375 1.4375q-1.40625 0.484375 -3.34375 0.484375l-3.21875 0q-0.265625 0 -0.515625 -0.171875q-0.234375 -0.1875 -0.234375 -0.65625l0 -13.515625q0 -0.453125 0.234375 -0.640625q0.25 -0.1875 0.515625 -0.1875l3.4375 0q1.96875 0 3.328125 0.515625q1.359375 0.515625 2.28125 1.46875q0.921875 0.953125 1.390625 2.3125q0.46875 1.359375 0.46875 3.0625zm-2.109375 0.09375q0 -1.234375 -0.3125 -2.296875q-0.296875 -1.0625 -0.953125 -1.828125q-0.65625 -0.78125 -1.65625 -1.203125q-0.984375 -0.4375 -2.5625 -0.4375l-2.046875 0l0 11.796875l2.078125 0q1.453125 0 2.4375 -0.359375q1.0 -0.375 1.671875 -1.125q0.671875 -0.75 1.0 -1.875q0.34375 -1.125 0.34375 -2.671875zm15.21875 3.375q0 0.703125 -0.1875 1.3125q-0.171875 0.609375 -0.5 1.09375q-0.328125 0.46875 -0.796875 0.84375q-0.46875 0.359375 -1.046875 0.609375q-0.578125 0.234375 -1.25 0.359375q-0.65625 0.125 -1.5 0.125l-3.96875 0q-0.265625 0 -0.515625 -0.171875q-0.234375 -0.1875 -0.234375 -0.65625l0 -13.515625q0 -0.453125 0.234375 -0.640625q0.25 -0.1875 0.515625 -0.1875l3.453125 0q1.359375 0 2.21875 0.265625q0.875 0.25 1.453125 0.75q0.578125 0.484375 0.859375 1.203125q0.296875 0.71875 0.296875 1.625q0 0.53125 -0.125 1.03125q-0.125 0.484375 -0.375 0.90625q-0.25 0.40625 -0.640625 0.734375q-0.375 0.328125 -0.875 0.546875q0.625 0.109375 1.15625 0.421875q0.546875 0.3125 0.953125 0.796875q0.40625 0.484375 0.640625 1.125q0.234375 0.640625 0.234375 1.421875zm-3.03125 -6.796875q0 -0.546875 -0.15625 -0.984375q-0.15625 -0.453125 -0.484375 -0.765625q-0.328125 -0.3125 -0.859375 -0.46875q-0.515625 -0.171875 -1.390625 -0.171875l-2.078125 0l0 4.921875l2.296875 0q0.78125 0 1.25 -0.203125q0.484375 -0.21875 0.796875 -0.5625q0.328125 -0.34375 0.46875 -0.796875q0.15625 -0.46875 0.15625 -0.96875zm0.90625 6.90625q0 -0.671875 -0.21875 -1.1875q-0.21875 -0.515625 -0.640625 -0.859375q-0.40625 -0.359375 -1.03125 -0.546875q-0.625 -0.1875 -1.578125 -0.1875l-2.40625 0l0 5.34375l2.921875 0q0.6875 0 1.203125 -0.15625q0.515625 -0.171875 0.90625 -0.484375q0.40625 -0.328125 0.625 -0.796875q0.21875 -0.484375 0.21875 -1.125z" fill-rule="nonzero"></path><path fill="#000000" fill-opacity="0.0" d="m385.01306 529.6285l0.85040283 73.19684" fill-rule="nonzero"></path><path stroke="#000000" stroke-width="2.6666666666666665" stroke-linejoin="round" stroke-linecap="butt" d="m385.0131 529.6284l0.74420166 64.05859" fill-rule="evenodd"></path><path fill="#000000" stroke="#000000" stroke-width="2.6666666666666665" stroke-linecap="butt" d="m385.7573 593.687l-3.0335083 -2.9638672l3.0943909 8.2039795l2.9029846 -8.273621z" fill-rule="evenodd"></path><path fill="#b7cce4" d="m549.9603 613.6393l0 0c0 5.9646606 19.341248 10.799988 43.19995 10.799988c23.858704 0 43.200012 -4.835327 43.200012 -10.799988l0 64.79999c0 5.9646606 -19.341309 10.799988 -43.200012 10.799988c-23.858704 0 -43.19995 -4.835327 -43.19995 -10.799988z" fill-rule="nonzero"></path><path fill="#d3e0ee" d="m549.9603 613.6393l0 0c0 -5.9646606 19.341248 -10.799988 43.19995 -10.799988c23.858704 0 43.200012 4.835327 43.200012 10.799988l0 0c0 5.9646606 -19.341309 10.799988 -43.200012 10.799988c-23.858704 0 -43.19995 -4.835327 -43.19995 -10.799988z" fill-rule="nonzero"></path><path fill="#000000" fill-opacity="0.0" d="m636.3603 613.6393l0 0c0 5.9646606 -19.341309 10.799988 -43.200012 10.799988c-23.858704 0 -43.19995 -4.835327 -43.19995 -10.799988l0 0c0 -5.9646606 19.341248 -10.799988 43.19995 -10.799988c23.858704 0 43.200012 4.835327 43.200012 10.799988l0 64.79999c0 5.9646606 -19.341309 10.799988 -43.200012 10.799988c-23.858704 0 -43.19995 -4.835327 -43.19995 -10.799988l0 -64.79999" fill-rule="nonzero"></path><path stroke="#000000" stroke-width="1.0" stroke-linejoin="round" stroke-linecap="butt" d="m636.3603 613.6393l0 0c0 5.9646606 -19.341309 10.799988 -43.200012 10.799988c-23.858704 0 -43.19995 -4.835327 -43.19995 -10.799988l0 0c0 -5.9646606 19.341248 -10.799988 43.19995 -10.799988c23.858704 0 43.200012 4.835327 43.200012 10.799988l0 64.79999c0 5.9646606 -19.341309 10.799988 -43.200012 10.799988c-23.858704 0 -43.19995 -4.835327 -43.19995 -10.799988l0 -64.79999" fill-rule="nonzero"></path><path fill="#000000" d="m592.922 643.6668q0 1.96875 -0.5 3.453125q-0.5 1.46875 -1.46875 2.4375q-0.96875 0.953125 -2.375 1.4375q-1.40625 0.484375 -3.34375 0.484375l-3.21875 0q-0.265625 0 -0.515625 -0.171875q-0.234375 -0.1875 -0.234375 -0.65625l0 -13.515625q0 -0.453125 0.234375 -0.640625q0.25 -0.1875 0.515625 -0.1875l3.4375 0q1.96875 0 3.328125 0.515625q1.359375 0.515625 2.28125 1.46875q0.921875 0.953125 1.390625 2.3125q0.46875 1.359375 0.46875 3.0625zm-2.109375 0.09375q0 -1.234375 -0.3125 -2.296875q-0.296875 -1.0625 -0.953125 -1.828125q-0.65625 -0.78125 -1.65625 -1.203125q-0.984375 -0.4375 -2.5625 -0.4375l-2.046875 0l0 11.796875l2.078125 0q1.453125 0 2.4375 -0.359375q1.0 -0.375 1.671875 -1.125q0.671875 -0.75 1.0 -1.875q0.34375 -1.125 0.34375 -2.671875zm15.21875 3.375q0 0.703125 -0.1875 1.3125q-0.171875 0.609375 -0.5 1.09375q-0.328125 0.46875 -0.796875 0.84375q-0.46875 0.359375 -1.046875 0.609375q-0.578125 0.234375 -1.25 0.359375q-0.65625 0.125 -1.5 0.125l-3.96875 0q-0.265625 0 -0.515625 -0.171875q-0.234375 -0.1875 -0.234375 -0.65625l0 -13.515625q0 -0.453125 0.234375 -0.640625q0.25 -0.1875 0.515625 -0.1875l3.453125 0q1.359375 0 2.21875 0.265625q0.875 0.25 1.453125 0.75q0.578125 0.484375 0.859375 1.203125q0.296875 0.71875 0.296875 1.625q0 0.53125 -0.125 1.03125q-0.125 0.484375 -0.375 0.90625q-0.25 0.40625 -0.640625 0.734375q-0.375 0.328125 -0.875 0.546875q0.625 0.109375 1.15625 0.421875q0.546875 0.3125 0.953125 0.796875q0.40625 0.484375 0.640625 1.125q0.234375 0.640625 0.234375 1.421875zm-3.03125 -6.796875q0 -0.546875 -0.15625 -0.984375q-0.15625 -0.453125 -0.484375 -0.765625q-0.328125 -0.3125 -0.859375 -0.46875q-0.515625 -0.171875 -1.390625 -0.171875l-2.078125 0l0 4.921875l2.296875 0q0.78125 0 1.25 -0.203125q0.484375 -0.21875 0.796875 -0.5625q0.328125 -0.34375 0.46875 -0.796875q0.15625 -0.46875 0.15625 -0.96875zm0.90625 6.90625q0 -0.671875 -0.21875 -1.1875q-0.21875 -0.515625 -0.640625 -0.859375q-0.40625 -0.359375 -1.03125 -0.546875q-0.625 -0.1875 -1.578125 -0.1875l-2.40625 0l0 5.34375l2.921875 0q0.6875 0 1.203125 -0.15625q0.515625 -0.171875 0.90625 -0.484375q0.40625 -0.328125 0.625 -0.796875q0.21875 -0.484375 0.21875 -1.125z" fill-rule="nonzero"></path><path fill="#000000" fill-opacity="0.0" d="m593.1603 529.6285l0 73.19684" fill-rule="nonzero"></path><path stroke="#000000" stroke-width="2.6666666666666665" stroke-linejoin="round" stroke-linecap="butt" d="m593.1603 529.6284l0 64.05798" fill-rule="evenodd"></path><path fill="#000000" stroke="#000000" stroke-width="2.6666666666666665" stroke-linecap="butt" d="m593.1603 593.6864l-2.9989014 -2.9989014l2.9989014 8.23938l2.9989014 -8.23938z" fill-rule="evenodd"></path><path fill="#000000" fill-opacity="0.0" d="m385.01306 348.84167l0 104.25195" fill-rule="nonzero"></path><path stroke="#000000" stroke-width="2.6666666666666665" stroke-linejoin="round" stroke-linecap="butt" d="m385.0131 348.84164l0 95.11307" fill-rule="evenodd"></path><path fill="#000000" stroke="#000000" stroke-width="2.6666666666666665" stroke-linecap="butt" d="m385.0131 443.95474l-2.9989014 -2.9989014l2.9989014 8.23938l2.9988708 -8.23938z" fill-rule="evenodd"></path><path fill="#000000" fill-opacity="0.0" d="m593.16016 349.7956l0 103.3071" fill-rule="nonzero"></path><path stroke="#000000" stroke-width="2.6666666666666665" stroke-linejoin="round" stroke-linecap="butt" d="m593.16016 349.7956l0 94.16818" fill-rule="evenodd"></path><path fill="#000000" stroke="#000000" stroke-width="2.6666666666666665" stroke-linecap="butt" d="m593.16016 443.9638l-2.9989014 -2.9989014l2.9989014 8.23938l2.9989014 -8.23938z" fill-rule="evenodd"></path><path fill="#000000" fill-opacity="0.0" d="m489.64865 188.13301l-104.62991 84.18898" fill-rule="nonzero"></path><path stroke="#000000" stroke-width="2.6666666666666665" stroke-linejoin="round" stroke-linecap="butt" d="m489.64865 188.13301l-97.509735 78.459854" fill-rule="evenodd"></path><path fill="#000000" stroke="#000000" stroke-width="2.6666666666666665" stroke-linecap="butt" d="m392.1389 266.59286l0.45645142 -4.2164307l-4.539337 7.5016785l8.299316 -2.8287964z" fill-rule="evenodd"></path><path fill="#000000" fill-opacity="0.0" d="m489.64865 188.13301l103.49606 85.133865" fill-rule="nonzero"></path><path stroke="#000000" stroke-width="2.6666666666666665" stroke-linejoin="round" stroke-linecap="butt" d="m489.64865 188.13301l96.4382 79.3282" fill-rule="evenodd"></path><path fill="#000000" stroke="#000000" stroke-width="2.6666666666666665" stroke-linecap="butt" d="m586.08685 267.4612l-4.2211304 0.41088867l8.268311 2.9182434l-4.458069 -7.5502625z" fill-rule="evenodd"></path><path fill="#000000" fill-opacity="0.0" d="m385.01306 348.84167l208.15747 104.25195" fill-rule="nonzero"></path><path stroke="#000000" stroke-width="2.6666666666666665" stroke-linejoin="round" stroke-linecap="butt" d="m385.0131 348.84164l199.98611 100.159515" fill-rule="evenodd"></path><path fill="#000000" stroke="#000000" stroke-width="2.6666666666666665" stroke-linecap="butt" d="m584.9992 449.00116l-4.024353 1.33844l8.710022 1.0083008l-6.024109 -6.371063z" fill-rule="evenodd"></path></g></svg>

